<svg xmlns="http://www.w3.org/2000/svg" xmlns:xlink="http://www.w3.org/1999/xlink" width="252" height="360" viewBox="0 0 252 360">
  <defs>
    <clipPath id="clip-path">
      <rect id="Rectangle_1" data-name="Rectangle 1" width="252" height="360" fill="#fff"/>
    </clipPath>
    <linearGradient id="linear-gradient" x1="0.006" y1="0.509" x2="0.938" y2="0.509" gradientUnits="objectBoundingBox">
      <stop offset="0" stop-color="#5ca6e2"/>
      <stop offset="1" stop-color="#eee1f5"/>
    </linearGradient>
  </defs>
  <g id="page_3_top_left" data-name="page 3 , top left" clip-path="url(#clip-path)">
    <g id="Group_8" data-name="Group 8">
      <g id="Vector_Smart_Object" data-name="Vector Smart Object" opacity="0.702">
        <path id="Path_4" data-name="Path 4" d="M-19.111,92.4C-8.386,149.065,27.6,205.335,78.581,232.62,169.75,281.4,209.094,208.65,211.156,126.1c.933-36.989,10.157-76.885,28.368-109.372a206.791,206.791,0,0,1,52.069-61.158c15.88-12.613,58.954-27.176,54.1-51.658-6.318-31.848-64.923-41.189-91.73-44.155-80.755-8.955-157.356,6.778-217.153,58.8C-14.205-37.065-30.948,29.795-19.111,92.4Z" fill="url(#linear-gradient)"/>
      </g>
      <g id="Vector_Smart_Object-2" data-name="Vector Smart Object" transform="translate(-1522.889 -68.984)" opacity="0.2">
        <g id="Group_7" data-name="Group 7">
          <path id="Path_397" data-name="Path 397" d="M1692.4,240.169a79.727,79.727,0,0,0,.422,8.382l2.11-.225a77.458,77.458,0,0,1-.411-8.157q0-1.159.031-2.329l-2.121-.054Q1692.4,238.983,1692.4,240.169Z" fill="#005267"/>
          <path id="Path_398" data-name="Path 398" d="M1553.309,407.691l.858,1.945c3.4-1.5,6.582-2.848,9.742-4.1l-.779-1.979C1559.941,404.822,1556.73,406.174,1553.309,407.691Z" fill="#005267"/>
          <path id="Path_399" data-name="Path 399" d="M1724.288,303.547l1.785-1.151-.3-.451c-1.552-2.4-3.435-5.03-5.923-8.278l-1.682,1.3c2.453,3.2,4.3,5.788,5.837,8.153Z" fill="#005267"/>
          <path id="Path_400" data-name="Path 400" d="M1524.635,421.683l-1.746.9v2.4l2.72-1.409Z" fill="#005267"/>
          <path id="Path_401" data-name="Path 401" d="M1534.1,416.849l.948,1.9q4.76-2.394,9.507-4.679l-.916-1.92Q1538.874,414.441,1534.1,416.849Z" fill="#005267"/>
          <path id="Path_402" data-name="Path 402" d="M1694.936,259.172a50.381,50.381,0,0,0,4.386,9.915l1.848-1.048a48.108,48.108,0,0,1-4.207-9.5Z" fill="#005267"/>
          <path id="Path_403" data-name="Path 403" d="M1693.192,227.087l2.108.238c.361-3.24.843-6.669,1.477-10.481l-2.092-.349C1694.045,220.344,1693.556,223.808,1693.192,227.087Z" fill="#005267"/>
          <path id="Path_404" data-name="Path 404" d="M1697.794,199.911q-.6,3.01-1.2,6.081l2.083.407q.594-3.061,1.2-6.072l.862-4.367-2.081-.411Z" fill="#005267"/>
          <path id="Path_405" data-name="Path 405" d="M1752.144,348.9l-1.984.753a82.955,82.955,0,0,1,3.114,10.024l2.063-.493A85.115,85.115,0,0,0,1752.144,348.9Z" fill="#005267"/>
          <path id="Path_406" data-name="Path 406" d="M1741.479,396.08q-1.417.914-2.837,1.732l1.056,1.845q1.464-.845,2.928-1.784a32.612,32.612,0,0,0,8.127-7.3l-1.67-1.309A30.463,30.463,0,0,1,1741.479,396.08Z" fill="#005267"/>
          <path id="Path_407" data-name="Path 407" d="M1573.123,399.85l.684,2.016c3.414-1.17,6.8-2.222,10.069-3.132l-.568-2.05C1580,397.6,1576.574,398.67,1573.123,399.85Z" fill="#005267"/>
          <path id="Path_408" data-name="Path 408" d="M1747.91,339.041c-1.455-3.036-3.109-6.232-4.926-9.5l-1.853,1.034c1.794,3.232,3.431,6.39,4.865,9.39Z" fill="#005267"/>
          <path id="Path_409" data-name="Path 409" d="M1705.166,278.1c2.155,3,4.475,5.983,6.458,8.5l1.665-1.318c-1.969-2.5-4.272-5.463-6.4-8.428Z" fill="#005267"/>
          <path id="Path_410" data-name="Path 410" d="M1703.436,180.42q.376-2.756.713-5.538l-2.1-.258q-.338,2.765-.708,5.507-.336,2.441-.759,4.984l2.092.348C1702.953,183.749,1703.213,182.067,1703.436,180.42Z" fill="#005267"/>
          <path id="Path_411" data-name="Path 411" d="M1706.208,153.655l-2.117-.156q-.385,5.308-.9,10.577l2.114.2Q1705.817,158.992,1706.208,153.655Z" fill="#005267"/>
          <path id="Path_412" data-name="Path 412" d="M1730.11,312.464c2.131,3.281,3.985,6.215,5.67,8.968l1.807-1.115c-1.692-2.767-3.558-5.717-5.7-9.017Z" fill="#005267"/>
          <path id="Path_413" data-name="Path 413" d="M1707.3,132.356l-2.121-.064q-.159,5.308-.43,10.61l2.117.111Q1707.143,137.688,1707.3,132.356Z" fill="#005267"/>
          <path id="Path_414" data-name="Path 414" d="M1754.74,369.986c.019.478.027.948.027,1.418a32.757,32.757,0,0,1-1.134,8.792l2.043.574a34.926,34.926,0,0,0,1.212-9.366c0-.5-.008-.994-.026-1.5Z" fill="#005267"/>
          <path id="Path_415" data-name="Path 415" d="M1635.828,394.99c3.177.528,6.563,1.193,10.35,2.032l.46-2.077c-3.827-.848-7.25-1.522-10.463-2.053Z" fill="#005267"/>
          <path id="Path_416" data-name="Path 416" d="M1719.179,405.055l.393,2.091a64.01,64.01,0,0,0,10.379-2.893l-.738-1.994A62.188,62.188,0,0,1,1719.179,405.055Z" fill="#005267"/>
          <path id="Path_417" data-name="Path 417" d="M1593.671,394.144l.435,2.082c3.443-.724,6.932-1.332,10.371-1.81l-.289-2.107C1600.7,392.793,1597.161,393.41,1593.671,394.144Z" fill="#005267"/>
          <path id="Path_418" data-name="Path 418" d="M1614.852,391.3l.075,2.128a90.812,90.812,0,0,1,10.47.256l.17-2.12A92.831,92.831,0,0,0,1614.852,391.3Z" fill="#005267"/>
          <path id="Path_419" data-name="Path 419" d="M1656.986,397.421l-.514,2.066q2.828.711,5.655,1.435l4.627,1.179.517-2.066-4.622-1.174Q1659.822,398.137,1656.986,397.421Z" fill="#005267"/>
          <path id="Path_420" data-name="Path 420" d="M1698.336,405.939l-.174,2.12c2.627.219,5.214.328,7.7.331q1.515,0,3.029-.057l-.079-2.128A87.036,87.036,0,0,1,1698.336,405.939Z" fill="#005267"/>
          <path id="Path_421" data-name="Path 421" d="M1677.095,404.6c3.811.862,7.234,1.548,10.462,2.1l.352-2.1c-3.188-.542-6.573-1.219-10.347-2.071Z" fill="#005267"/>
          <path id="Path_422" data-name="Path 422" d="M1707.492,111.034l-2.121.025q.034,3,.035,6.021c0,.333,0,.669,0,1,0,1.2,0,2.4-.015,3.594l2.121.021c.01-1.049.011-2.095.014-3.142,0-.491.006-.985.005-1.477Q1707.527,114.052,1707.492,111.034Z" fill="#005267"/>
          <path id="Path_423" data-name="Path 423" d="M1706.136,79.069q-.378-5.022-.881-10.085h-2.13q.513,5.137.893,10.246Z" fill="#005267"/>
          <path id="Path_424" data-name="Path 424" d="M1705.137,100.445l2.121-.07q-.073-2.27-.166-4.528-.124-3.044-.288-6.128l-2.117.112q.161,3.069.284,6.1Q1705.062,98.182,1705.137,100.445Z" fill="#005267"/>
          <path id="Path_425" data-name="Path 425" d="M1696.691,136.25l2.121.02q.023-2.339.023-4.671,0-3.489-.051-6.963l-2.121.034q.053,3.455.051,6.929Q1696.713,133.921,1696.691,136.25Z" fill="#005267"/>
          <path id="Path_426" data-name="Path 426" d="M1698.619,145.962l-2.121-.064c-.117,3.848-.286,7.74-.5,11.569l2.117.121C1698.332,153.741,1698.5,149.83,1698.619,145.962Z" fill="#005267"/>
          <path id="Path_427" data-name="Path 427" d="M1705.879,289.122c2.211,2.828,4.75,6.11,6.9,9.239l1.749-1.205c-2.183-3.182-4.744-6.492-6.975-9.347Z" fill="#005267"/>
          <path id="Path_428" data-name="Path 428" d="M1724.241,316.225l1.806-1.113c-2.227-3.634-4.4-7.007-6.227-9.827l-1.778,1.159C1719.864,309.253,1722.023,312.612,1724.241,316.225Z" fill="#005267"/>
          <path id="Path_429" data-name="Path 429" d="M1533.251,411.432l-.965-1.9-9.4,4.854V416.6l.076.148Z" fill="#005267"/>
          <path id="Path_430" data-name="Path 430" d="M1687.345,220.54l2.092.344c.651-3.981,1.4-7.995,2.056-11.394l-2.085-.4C1688.755,212.5,1688,216.532,1687.345,220.54Z" fill="#005267"/>
          <path id="Path_431" data-name="Path 431" d="M1685.279,241.867l2.122.013a108.256,108.256,0,0,1,.716-11.465l-2.11-.238A111.952,111.952,0,0,0,1685.279,241.867Z" fill="#005267"/>
          <path id="Path_432" data-name="Path 432" d="M1689.6,259.236a50.118,50.118,0,0,1-1.646-7.855l-2.106.279a52.341,52.341,0,0,0,1.723,8.19c.321,1.072.71,2.182,1.16,3.3l1.968-.8C1690.27,261.293,1689.9,260.247,1689.6,259.236Z" fill="#005267"/>
          <path id="Path_433" data-name="Path 433" d="M1693.246,271.883c1.746,2.826,3.872,5.875,6.69,9.593l1.69-1.288c-2.776-3.662-4.867-6.659-6.578-9.428Z" fill="#005267"/>
          <path id="Path_434" data-name="Path 434" d="M1697.464,167.262l-2.114-.166c-.307,3.879-.665,7.757-1.069,11.525l2.108.229C1696.8,175.061,1697.157,171.162,1697.464,167.262Z" fill="#005267"/>
          <path id="Path_435" data-name="Path 435" d="M1705.559,394.742l.253,2.111a60.427,60.427,0,0,0,11.488-2.512l-.655-2.025A58.635,58.635,0,0,1,1705.559,394.742Z" fill="#005267"/>
          <path id="Path_436" data-name="Path 436" d="M1684.394,396.4a96.633,96.633,0,0,0,11.655.936l.034-2.129a94.819,94.819,0,0,1-11.4-.914Z" fill="#005267"/>
          <path id="Path_437" data-name="Path 437" d="M1739.954,374.8l1.935.873a29.819,29.819,0,0,0,2.471-11.692l-2.121-.041A27.69,27.69,0,0,1,1739.954,374.8Z" fill="#005267"/>
          <path id="Path_438" data-name="Path 438" d="M1642.881,387.248c3.97.852,7.909,1.808,11.24,2.63l.5-2.065c-3.344-.828-7.3-1.787-11.3-2.648Z" fill="#005267"/>
          <path id="Path_439" data-name="Path 439" d="M1663.487,392.195c4.586,1.113,8.082,1.9,11.335,2.562l.418-2.087c-3.225-.652-6.7-1.438-11.253-2.545Z" fill="#005267"/>
          <path id="Path_440" data-name="Path 440" d="M1695.234,188.482l-2.1-.287c-.426,3.152-1.012,6.665-1.9,11.4l2.084.4C1694.213,195.219,1694.8,191.669,1695.234,188.482Z" fill="#005267"/>
          <path id="Path_441" data-name="Path 441" d="M1741.336,354.561l2.08-.416a74.822,74.822,0,0,0-3.269-11.3l-1.989.74A72.38,72.38,0,0,1,1741.336,354.561Z" fill="#005267"/>
          <path id="Path_442" data-name="Path 442" d="M1729.122,324.528c1.994,3.558,3.778,7,5.3,10.237l1.919-.91c-1.546-3.28-3.355-6.768-5.374-10.37Z" fill="#005267"/>
          <path id="Path_443" data-name="Path 443" d="M1730.221,385.811c-1.587,1.028-3.222,1.982-4.858,2.836l.978,1.886c1.694-.882,3.386-1.872,5.034-2.938a31.8,31.8,0,0,0,4.738-3.751l-1.471-1.533A29.88,29.88,0,0,1,1730.221,385.811Z" fill="#005267"/>
          <path id="Path_444" data-name="Path 444" d="M1622.078,384.21a110.744,110.744,0,0,1,11.387,1.253l.331-2.1a112.182,112.182,0,0,0-11.6-1.274Z" fill="#005267"/>
          <path id="Path_445" data-name="Path 445" d="M1540.9,405.16l.948,1.9c3.783-1.894,7.181-3.545,10.389-5.051l-.9-1.928C1548.114,401.6,1544.7,403.258,1540.9,405.16Z" fill="#005267"/>
          <path id="Path_446" data-name="Path 446" d="M1560.16,396.1l.837,1.953c3.737-1.612,7.231-3.024,10.684-4.314l-.742-1.994C1567.455,393.048,1563.929,394.474,1560.16,396.1Z" fill="#005267"/>
          <path id="Path_447" data-name="Path 447" d="M1580.107,388.583l.638,2.028c3.715-1.175,7.44-2.208,11.072-3.073l-.49-2.07C1587.646,386.345,1583.872,387.392,1580.107,388.583Z" fill="#005267"/>
          <path id="Path_448" data-name="Path 448" d="M1609.8,382.336c-2.963.294-5.977.7-8.96,1.2l.352,2.1c2.935-.493,5.9-.892,8.819-1.185q1.28-.128,2.554-.212l-.142-2.124C1611.553,382.175,1610.677,382.246,1609.8,382.336Z" fill="#005267"/>
          <path id="Path_449" data-name="Path 449" d="M1694.913,72.421c-.173-1.16-.365-2.293-.55-3.437h-2.147c.2,1.245.412,2.484.6,3.751Z" fill="#005267"/>
          <path id="Path_450" data-name="Path 450" d="M1697.31,93.64c-.325-3.977-.708-7.877-1.132-11.59l-2.11.243c.425,3.692.8,7.568,1.13,11.522Z" fill="#005267"/>
          <path id="Path_451" data-name="Path 451" d="M1698.351,110.186q-.156-3.408-.36-6.865l-2.117.127q.2,3.44.358,6.835.1,2.313.185,4.64l0,.1.193-.006,1.928-.068Q1698.46,112.559,1698.351,110.186Z" fill="#005267"/>
          <path id="Path_452" data-name="Path 452" d="M1689.433,170.842l-2.117-.124c-.247,4.2-.564,8.412-.938,12.5l2.114.2C1688.868,179.3,1689.185,175.071,1689.433,170.842Z" fill="#005267"/>
          <path id="Path_453" data-name="Path 453" d="M1687.225,195.136q.19-1.516.367-3.035l-2.11-.245q-.171,1.512-.362,3.016c-.33,2.659-.792,5.634-1.451,9.362l2.088.372C1686.426,200.843,1686.891,197.832,1687.225,195.136Z" fill="#005267"/>
          <path id="Path_454" data-name="Path 454" d="M1690.118,140.795c-.053-4.192-.167-8.432-.34-12.6l-2.122.089c.174,4.147.288,8.366.339,12.538Z" fill="#005267"/>
          <path id="Path_455" data-name="Path 455" d="M1606.306,375.579l-.278-2.111c-4.094.547-8.275,1.313-12.424,2.282l.48,2.074C1598.17,376.87,1602.28,376.113,1606.306,375.579Z" fill="#005267"/>
          <path id="Path_456" data-name="Path 456" d="M1687.732,162.047l2.122.08c.155-4.134.25-8.374.283-12.6l-2.121-.018C1687.983,153.715,1687.888,157.933,1687.732,162.047Z" fill="#005267"/>
          <path id="Path_457" data-name="Path 457" d="M1712.014,309.893c2.454,3.97,4.526,7.5,6.333,10.8l1.86-1.027c-1.825-3.326-3.916-6.89-6.392-10.894Z" fill="#005267"/>
          <path id="Path_458" data-name="Path 458" d="M1682,225.532c.661-4.216,1.436-8.413,2.176-12.352l-2.085-.395c-.742,3.955-1.523,8.171-2.187,12.418Z" fill="#005267"/>
          <path id="Path_459" data-name="Path 459" d="M1677.543,383.389l-.274,2.111a87.942,87.942,0,0,0,11.522.809l1.131-.009-.038-2.128-1.094.008A85.947,85.947,0,0,1,1677.543,383.389Z" fill="#005267"/>
          <path id="Path_460" data-name="Path 460" d="M1722.3,328.381a98.137,98.137,0,0,1,4.678,11.517l2.013-.666a100.443,100.443,0,0,0-4.777-11.77Z" fill="#005267"/>
          <path id="Path_461" data-name="Path 461" d="M1731.356,360.69a31.513,31.513,0,0,0,.489-5.617,42.493,42.493,0,0,0-.669-7.264l-2.088.366a40.279,40.279,0,0,1,.636,6.9,29.11,29.11,0,0,1-.456,5.234Z" fill="#005267"/>
          <path id="Path_462" data-name="Path 462" d="M1526.957,404.078c-1.359.7-2.711,1.415-4.068,2.121v2.4c1.681-.876,3.357-1.758,5.042-2.629Z" fill="#005267"/>
          <path id="Path_463" data-name="Path 463" d="M1711,382.14l-.808-1.969a52.159,52.159,0,0,1-11.809,3.291l.327,2.1A54.4,54.4,0,0,0,1711,382.14Z" fill="#005267"/>
          <path id="Path_464" data-name="Path 464" d="M1534.68,400.093l.966,1.9.549-.286c3.559-1.832,7.092-3.644,10.62-5.409l-.948-1.9c-3.533,1.768-7.073,3.585-10.655,5.428Z" fill="#005267"/>
          <path id="Path_465" data-name="Path 465" d="M1728.178,369.15l-1.81-1.11a24.172,24.172,0,0,1-7.4,7.5c-.4.259-.8.513-1.2.758l1.106,1.817c.418-.258.834-.52,1.257-.8A26.244,26.244,0,0,0,1728.178,369.15Z" fill="#005267"/>
          <path id="Path_466" data-name="Path 466" d="M1669.043,381.982c-4.158-.816-8.322-1.785-12.2-2.707l-.489,2.07c3.9.929,8.089,1.9,12.285,2.724Z" fill="#005267"/>
          <path id="Path_467" data-name="Path 467" d="M1585.765,380.038,1585.16,378c-3.917,1.17-7.822,2.5-11.939,4.067l.754,1.991C1578.041,382.506,1581.9,381.192,1585.765,380.038Z" fill="#005267"/>
          <path id="Path_468" data-name="Path 468" d="M1627.193,375.418l.244-2.116a85.265,85.265,0,0,0-12.662-.6l.066,2.128A82.47,82.47,0,0,1,1627.193,375.418Z" fill="#005267"/>
          <path id="Path_469" data-name="Path 469" d="M1681.109,255.026l-2.087.366a46.14,46.14,0,0,0,1.253,5.365,39.9,39.9,0,0,0,2.8,6.819l1.884-.973a38.3,38.3,0,0,1-2.651-6.457A45.019,45.019,0,0,1,1681.109,255.026Z" fill="#005267"/>
          <path id="Path_470" data-name="Path 470" d="M1648.395,377.257c-3.375-.792-7.822-1.808-12.308-2.635l-.385,2.095c4.441.819,8.859,1.827,12.208,2.614Z" fill="#005267"/>
          <path id="Path_471" data-name="Path 471" d="M1565.969,387.3l-.833-1.958c-3.6,1.542-7.352,3.249-11.458,5.214l.916,1.92C1558.671,390.52,1562.391,388.828,1565.969,387.3Z" fill="#005267"/>
          <path id="Path_472" data-name="Path 472" d="M1680.3,246.523c-.019-.661-.026-1.325-.026-1.989a100.119,100.119,0,0,1,.588-10.424l-2.108-.22a101.969,101.969,0,0,0-.6,10.644c0,.686.009,1.37.028,2.047Z" fill="#005267"/>
          <path id="Path_473" data-name="Path 473" d="M1687.623,275.138c2.3,3.377,4.872,6.724,7.524,10.144l1.674-1.306c-2.631-3.392-5.182-6.712-7.445-10.04Z" fill="#005267"/>
          <path id="Path_474" data-name="Path 474" d="M1700.418,292.169c1.581,2.134,2.869,3.99,3.939,5.671.787,1.247,1.651,2.594,2.571,4.028l.438.686,1.786-1.151-.441-.686c-.916-1.43-1.778-2.772-2.563-4.018-1.1-1.729-2.415-3.627-4.028-5.8Z" fill="#005267"/>
          <path id="Path_475" data-name="Path 475" d="M1686.235,107.11c.055.581.105,1.169.158,1.753.309,3.448.578,6.978.812,10.747l2.117-.133c-.194-3.114-.411-6.066-.653-8.946q-.154-1.827-.322-3.623Z" fill="#005267"/>
          <path id="Path_476" data-name="Path 476" d="M1683.929,77.124c-.6-2.782-1.25-5.5-1.942-8.141h-2.192c.737,2.776,1.428,5.647,2.058,8.588Z" fill="#005267"/>
          <path id="Path_477" data-name="Path 477" d="M1687.411,98.223c-.526-4.3-1.141-8.508-1.825-12.5l-2.092.362c.679,3.961,1.288,8.132,1.813,12.4Z" fill="#005267"/>
          <path id="Path_478" data-name="Path 478" d="M1682.15,278.311c1.481,2.031,3.022,4.04,4.548,6.027,1.231,1.606,2.454,3.2,3.621,4.773l1.7-1.271c-1.174-1.585-2.4-3.184-3.642-4.8-1.515-1.974-3.045-3.969-4.517-5.986Z" fill="#005267"/>
          <path id="Path_479" data-name="Path 479" d="M1548.319,387.265c4.827-2.452,8.554-4.293,12.084-5.972l-.908-1.925c-3.548,1.688-7.29,3.538-12.133,6Z" fill="#005267"/>
          <path id="Path_480" data-name="Path 480" d="M1678.75,138.984q.18,3.214.307,6.461l2.121-.083q-.128-3.265-.311-6.5-.2-3.5-.466-7.064l-2.117.16Q1678.55,135.5,1678.75,138.984Z" fill="#005267"/>
          <path id="Path_481" data-name="Path 481" d="M1679.738,124.061c-.458-4.7-1.01-9.244-1.632-13.5l-2.1.309c.621,4.22,1.166,8.728,1.62,13.4Z" fill="#005267"/>
          <path id="Path_482" data-name="Path 482" d="M1540.479,388.882q-6.013,3.086-12.011,6.2l.977,1.888q5.989-3.114,12-6.189Z" fill="#005267"/>
          <path id="Path_483" data-name="Path 483" d="M1671.5,237.637c-.317,3.276-.47,6.241-.47,9.061,0,1.609.054,3.169.155,4.636l2.117-.146c-.1-1.421-.149-2.934-.152-4.493,0-2.747.152-5.644.462-8.855Z" fill="#005267"/>
          <path id="Path_484" data-name="Path 484" d="M1674.38,258.67l-2.067.481q.3,1.274.666,2.515a43.535,43.535,0,0,0,4.785,10.179l1.806-1.118a41.41,41.41,0,0,1-4.56-9.674C1674.776,260.269,1674.567,259.473,1674.38,258.67Z" fill="#005267"/>
          <path id="Path_485" data-name="Path 485" d="M1679.356,160.708q0,2.975-.045,5.955l2.121.033q.047-3,.046-5.988,0-3.8-.075-7.59l-2.121.041Q1679.357,156.924,1679.356,160.708Z" fill="#005267"/>
          <path id="Path_486" data-name="Path 486" d="M1674.561,230.215c.611-4.124,1.357-8.26,2.076-12.261l.19-1.057-2.088-.378-.19,1.057c-.723,4.018-1.468,8.17-2.083,12.328Z" fill="#005267"/>
          <path id="Path_487" data-name="Path 487" d="M1642.123,366.753c-5.328-1.17-9.447-1.933-13.352-2.474l-.289,2.106c3.847.534,7.915,1.289,13.19,2.447Z" fill="#005267"/>
          <path id="Path_488" data-name="Path 488" d="M1662.824,371.29c-4.514-.843-9.108-1.9-13.162-2.833l-.472,2.075c4.073.936,8.689,2,13.244,2.849Z" fill="#005267"/>
          <path id="Path_489" data-name="Path 489" d="M1600.074,367.325l-.406-2.091a129.7,129.7,0,0,0-13.193,3.325l.623,2.037A124.465,124.465,0,0,1,1600.074,367.325Z" fill="#005267"/>
          <path id="Path_490" data-name="Path 490" d="M1609.663,365.87a67.889,67.889,0,0,1,11.233-.246l.12-2.124a69.473,69.473,0,0,0-11.581.255c-.7.073-1.393.156-2.085.243l.269,2.112Q1608.632,365.978,1609.663,365.87Z" fill="#005267"/>
          <path id="Path_491" data-name="Path 491" d="M1579.838,373.034l-.725-2c-4.025,1.465-8.139,3.132-12.579,5.1l.858,1.945C1571.785,376.132,1575.858,374.482,1579.838,373.034Z" fill="#005267"/>
          <path id="Path_492" data-name="Path 492" d="M1713.747,324.642a136.2,136.2,0,0,0-6.149-12.181l-1.849,1.048A133.6,133.6,0,0,1,1711.8,325.5Z" fill="#005267"/>
          <path id="Path_493" data-name="Path 493" d="M1716.581,331.945l-2.013.674a47.906,47.906,0,0,1,2.616,12.94l2.122-.089A50.135,50.135,0,0,0,1716.581,331.945Z" fill="#005267"/>
          <path id="Path_494" data-name="Path 494" d="M1696.46,294.274l-1.8,1.131c.682,1.091,1.426,2.263,2.215,3.506,1.528,2.41,3.227,5.09,4.974,7.957l1.812-1.11c-1.753-2.88-3.46-5.57-4.995-7.991C1697.88,296.528,1697.141,295.361,1696.46,294.274Z" fill="#005267"/>
          <path id="Path_495" data-name="Path 495" d="M1704.536,369.595l-.981-1.888a46.123,46.123,0,0,1-12.4,4.4l.418,2.087A48.238,48.238,0,0,0,1704.536,369.595Z" fill="#005267"/>
          <path id="Path_496" data-name="Path 496" d="M1718.582,353.448l-2.058-.508a20.053,20.053,0,0,1-6.687,10.721l1.367,1.626A22.115,22.115,0,0,0,1718.582,353.448Z" fill="#005267"/>
          <path id="Path_497" data-name="Path 497" d="M1523.5,69.6c-.205.325-.4.662-.606.992v4.138c.784-1.352,1.58-2.691,2.4-4Z" fill="#005267"/>
          <path id="Path_498" data-name="Path 498" d="M1683.776,375.178l-.116-2.124a73.081,73.081,0,0,1-13.282-.565l-.26,2.112a81,81,0,0,0,10.116.675Q1682.007,375.276,1683.776,375.178Z" fill="#005267"/>
          <path id="Path_499" data-name="Path 499" d="M1677.011,202.241c-.225,1.952-.534,4.136-.946,6.673l2.092.341c.418-2.569.733-4.784.961-6.766q.4-3.348.723-6.742l-2.112-.2Q1677.407,198.91,1677.011,202.241Z" fill="#005267"/>
          <path id="Path_500" data-name="Path 500" d="M1681.232,174.452l-2.121-.075c-.158,4.505-.4,9.042-.732,13.482l2.117.157C1680.823,183.548,1681.073,178.984,1681.232,174.452Z" fill="#005267"/>
          <path id="Path_501" data-name="Path 501" d="M1669.116,74.65c-.708-1.825-1.439-3.607-2.206-5.317l-1.934.872a119.274,119.274,0,0,1,4.749,12.539l.157-.05,1.865-.6C1670.932,79.536,1670.048,77.053,1669.116,74.65Z" fill="#005267"/>
          <path id="Path_502" data-name="Path 502" d="M1672.039,90.076l-.179.046c1.081,4.139,2.057,8.563,2.894,13.147l2.088-.385c-.352-1.919-.733-3.8-1.129-5.658-.561-2.626-1.161-5.189-1.8-7.646Z" fill="#005267"/>
          <path id="Path_503" data-name="Path 503" d="M1609.489,356.579c1.642-.191,3.354-.308,5.088-.349l-.05-2.128c-1.8.043-3.575.166-5.281.361-3.058.352-6.165.851-9.239,1.482l.426,2.087C1603.445,357.41,1606.491,356.922,1609.489,356.579Z" fill="#005267"/>
          <path id="Path_504" data-name="Path 504" d="M1635.806,356.341a119.189,119.189,0,0,0-14.436-2.062l-.152,2.124a117.11,117.11,0,0,1,14.18,2.028Z" fill="#005267"/>
          <path id="Path_505" data-name="Path 505" d="M1669.784,150.123l2.117-.158c-.39-5.214-.848-9.955-1.4-14.494l-2.1.259C1668.942,140.235,1669.4,144.943,1669.784,150.123Z" fill="#005267"/>
          <path id="Path_506" data-name="Path 506" d="M1656.2,362.713l.365-2.095c-3.974-.7-8.059-1.585-12.01-2.442l-2.118-.461-.448,2.082,2.12.457C1648.08,361.117,1652.186,362.009,1656.2,362.713Z" fill="#005267"/>
          <path id="Path_507" data-name="Path 507" d="M1536.074,385.309l-.973-1.891q-6.136,3.189-12.212,6.463v1.428l.41.763Q1529.65,388.633,1536.074,385.309Z" fill="#005267"/>
          <path id="Path_508" data-name="Path 508" d="M1677.612,363.942l-.232-2.116a62.6,62.6,0,0,1-14.194-.222l-.244,2.116a74.271,74.271,0,0,0,8.664.538A55.428,55.428,0,0,0,1677.612,363.942Z" fill="#005267"/>
          <path id="Path_509" data-name="Path 509" d="M1535.959,87.44l-1.729-1.234a118.588,118.588,0,0,0-7.7,12.426l1.868,1.01A116.347,116.347,0,0,1,1535.959,87.44Z" fill="#005267"/>
          <path id="Path_510" data-name="Path 510" d="M1670.681,171.315l2.121-.025c-.056-4.844-.213-9.738-.47-14.546l-2.117.114C1670.469,161.634,1670.624,166.5,1670.681,171.315Z" fill="#005267"/>
          <path id="Path_511" data-name="Path 511" d="M1573.248,364.62c-4,1.713-8.192,3.649-13.186,6.1l.933,1.911c4.96-2.434,9.116-4.358,13.084-6.053Z" fill="#005267"/>
          <path id="Path_512" data-name="Path 512" d="M1549.794,71.655l-1.429-1.571a99.1,99.1,0,0,0-10.006,10.678L1540,82.1A97.174,97.174,0,0,1,1549.794,71.655Z" fill="#005267"/>
          <path id="Path_513" data-name="Path 513" d="M1593.387,357.516a138.135,138.135,0,0,0-13.843,4.548l.758,1.987a135.392,135.392,0,0,1,13.633-4.476Z" fill="#005267"/>
          <path id="Path_514" data-name="Path 514" d="M1665.793,262.921c1.2,3.827,3.405,7.967,6.942,13.037l1.736-1.223c-3.408-4.883-5.524-8.839-6.656-12.454Z" fill="#005267"/>
          <path id="Path_515" data-name="Path 515" d="M1670.266,192.521l2.117.108c.247-4.757.392-9.652.431-14.549l-2.121-.016C1670.653,182.929,1670.51,187.793,1670.266,192.521Z" fill="#005267"/>
          <path id="Path_516" data-name="Path 516" d="M1663.9,248.84a56.9,56.9,0,0,0,.437,7.287l2.1-.274a54.6,54.6,0,0,1-.421-7.013c0-2.266.11-4.632.338-7.237l-2.113-.186C1664.016,244.085,1663.9,246.512,1663.9,248.84Z" fill="#005267"/>
          <path id="Path_517" data-name="Path 517" d="M1688.667,298.933c2.082,3.364,4.789,7.822,7.264,12.475l1.873-1c-2.5-4.707-5.235-9.2-7.334-12.6Z" fill="#005267"/>
          <path id="Path_518" data-name="Path 518" d="M1697.876,356.6l-1.255-1.714-.171.121a41.74,41.74,0,0,1-12.588,5.644l.535,2.057a43.805,43.805,0,0,0,13.236-5.935Z" fill="#005267"/>
          <path id="Path_519" data-name="Path 519" d="M1702.921,351.666a21.566,21.566,0,0,0,3.895-12.955c0-.484-.013-.97-.038-1.463l-2.117.1c.02.455.033.907.033,1.358a19.493,19.493,0,0,1-3.489,11.7Z" fill="#005267"/>
          <path id="Path_520" data-name="Path 520" d="M1645.358,70.049c-.347-.367-.714-.709-1.069-1.066h-3.008q1.3,1.223,2.535,2.53Z" fill="#005267"/>
          <path id="Path_521" data-name="Path 521" d="M1665.178,107.773a120.448,120.448,0,0,0-4.763-13.832l-1.956.823a118.286,118.286,0,0,1,4.675,13.585Z" fill="#005267"/>
          <path id="Path_522" data-name="Path 522" d="M1698.928,317.416a69.67,69.67,0,0,1,4.8,13.429l2.067-.478a71.625,71.625,0,0,0-4.943-13.85Z" fill="#005267"/>
          <path id="Path_523" data-name="Path 523" d="M1679.463,281.51l-1.017-1.346-1.691,1.284,1.017,1.346c2.572,3.4,5,6.615,6.943,9.778l.373.608,1.807-1.117-.373-.6C1684.524,288.206,1682.067,284.954,1679.463,281.51Z" fill="#005267"/>
          <path id="Path_524" data-name="Path 524" d="M1657.558,87.727a78.967,78.967,0,0,0-7.755-12.451l-1.681,1.3a76.875,76.875,0,0,1,7.543,12.116Z" fill="#005267"/>
          <path id="Path_525" data-name="Path 525" d="M1523.464,104.73c-.2.421-.382.851-.575,1.274v5.341c.789-1.928,1.616-3.837,2.494-5.709Z" fill="#005267"/>
          <path id="Path_526" data-name="Path 526" d="M1667.481,129.049l2.1-.32c-.76-5.032-1.672-9.857-2.71-14.341l-2.067.48C1665.826,119.3,1666.728,124.07,1667.481,129.049Z" fill="#005267"/>
          <path id="Path_527" data-name="Path 527" d="M1666.856,223.191c-.638,3.727-1.3,7.585-1.832,11.445l2.1.29c.529-3.824,1.185-7.662,1.821-11.375l.5-2.915-2.093-.354Z" fill="#005267"/>
          <path id="Path_528" data-name="Path 528" d="M1542.073,382.215q4.207-2.16,8.421-4.307,2.24-1.14,4.469-2.27l-.953-1.9q-2.234,1.125-4.476,2.273-4.215,2.147-8.426,4.305Z" fill="#005267"/>
          <path id="Path_529" data-name="Path 529" d="M1668.9,209.612c-.139,1.3-.311,2.64-.5,4.005l2.1.3c.2-1.39.368-2.751.511-4.073.373-3.418.693-6.927.95-10.433l-2.117-.153C1669.591,202.735,1669.274,206.219,1668.9,209.612Z" fill="#005267"/>
          <path id="Path_530" data-name="Path 530" d="M1661.969,181.825q.109,4.011.108,8.049,0,3.687-.091,7.369l2.122.054q.092-3.708.09-7.423,0-4.062-.108-8.107Z" fill="#005267"/>
          <path id="Path_531" data-name="Path 531" d="M1662.767,160.453l-2.113.207c.232,2.364.435,4.714.613,7.031q.3,4.143.5,8.352l2.117-.1q-.194-4.236-.5-8.416Q1663.111,164.026,1662.767,160.453Z" fill="#005267"/>
          <path id="Path_532" data-name="Path 532" d="M1651.9,119.415a116.545,116.545,0,0,1,4.491,14.652l2.063-.5a119.124,119.124,0,0,0-4.574-14.919Z" fill="#005267"/>
          <path id="Path_533" data-name="Path 533" d="M1659.572,266.685c1.987,4.557,5.2,9.061,8.322,13.282l1.7-1.268c-3.048-4.123-6.182-8.514-8.082-12.866Z" fill="#005267"/>
          <path id="Path_534" data-name="Path 534" d="M1550.856,100.06a76.945,76.945,0,0,1,11.484-9.974l-1.218-1.744a79.2,79.2,0,0,0-11.8,10.251Z" fill="#005267"/>
          <path id="Path_535" data-name="Path 535" d="M1547.051,104.34l-1.629-1.365a99.522,99.522,0,0,0-9,12.763l1.823,1.091A97.188,97.188,0,0,1,1547.051,104.34Z" fill="#005267"/>
          <path id="Path_536" data-name="Path 536" d="M1553.73,365.612l.957,1.9,2.957-1.5c3.639-1.842,7.24-3.654,10.839-5.385l-.919-1.92c-3.612,1.739-7.225,3.555-10.879,5.4Z" fill="#005267"/>
          <path id="Path_537" data-name="Path 537" d="M1601.617,79.13l.191-2.12a58.614,58.614,0,0,0-15.638.656l.372,2.095A56.614,56.614,0,0,1,1601.617,79.13Z" fill="#005267"/>
          <path id="Path_538" data-name="Path 538" d="M1629.414,346.016a85.164,85.164,0,0,0-13.659-1.234c-.659,0-1.27.008-1.9.029l.07,2.128q.836-.028,1.672-.029a79.789,79.789,0,0,1,13.482,1.209Z" fill="#005267"/>
          <path id="Path_539" data-name="Path 539" d="M1671.393,352.527l-.373-2.095a52.32,52.32,0,0,1-15.076.274l-.224,2.116a67.791,67.791,0,0,0,7.26.413A47.426,47.426,0,0,0,1671.393,352.527Z" fill="#005267"/>
          <path id="Path_540" data-name="Path 540" d="M1581.017,81.038l-.58-2.047a62.631,62.631,0,0,0-14.378,6.178l1.07,1.839A60.482,60.482,0,0,1,1581.017,81.038Z" fill="#005267"/>
          <path id="Path_541" data-name="Path 541" d="M1529.738,378.1c-2.383,1.294-4.655,2.552-6.849,3.794v2.449c2.507-1.429,5.1-2.877,7.86-4.373Z" fill="#005267"/>
          <path id="Path_542" data-name="Path 542" d="M1608.266,347.421l-.282-2.107a100.216,100.216,0,0,0-15.221,3.29l.6,2.041A98.152,98.152,0,0,1,1608.266,347.421Z" fill="#005267"/>
          <path id="Path_543" data-name="Path 543" d="M1522.893,197.543c0-.2,0-.395,0-.592v1.67h0Z" fill="#005267"/>
          <path id="Path_544" data-name="Path 544" d="M1522.889,161.921v10.552c.106-3.863.3-7.281.591-10.5Z" fill="#005267"/>
          <path id="Path_545" data-name="Path 545" d="M1527.5,141.329l-2.031-.613c-1.044,3.48-1.9,7-2.584,10.5v4.862l1.269.188A106.805,106.805,0,0,1,1527.5,141.329Z" fill="#005267"/>
          <path id="Path_546" data-name="Path 546" d="M1548.565,368.235q-6.889,3.51-13.72,7.114l.99,1.883q6.806-3.614,13.693-7.1Z" fill="#005267"/>
          <path id="Path_547" data-name="Path 547" d="M1649.93,352.028l.341-2.1c-3.371-.547-6.839-1.243-10.191-1.914-1.642-.331-3.287-.661-4.937-.976l-.4,2.09c1.642.317,3.284.645,4.918.973C1643.036,350.777,1646.522,351.475,1649.93,352.028Z" fill="#005267"/>
          <path id="Path_548" data-name="Path 548" d="M1535.443,121.838l-1.877-.992a112.453,112.453,0,0,0-6.261,14.3l2,.72A110.376,110.376,0,0,1,1535.443,121.838Z" fill="#005267"/>
          <path id="Path_549" data-name="Path 549" d="M1682.458,302.6a105.491,105.491,0,0,1,6.648,13.789l1.981-.762a107.354,107.354,0,0,0-6.781-14.071Z" fill="#005267"/>
          <path id="Path_550" data-name="Path 550" d="M1693.347,337.1a21.8,21.8,0,0,0,.953-6.565,35.945,35.945,0,0,0-1.368-9.3l-2.047.557a33.835,33.835,0,0,1,1.293,8.739,19.677,19.677,0,0,1-.853,5.92Z" fill="#005267"/>
          <path id="Path_551" data-name="Path 551" d="M1656.771,250.957a46.893,46.893,0,0,0,.976,10.011l2.071-.454a44.885,44.885,0,0,1-.926-9.557c0-1.729.075-3.593.221-5.543l-2.119-.157C1656.845,247.258,1656.771,249.177,1656.771,250.957Z" fill="#005267"/>
          <path id="Path_552" data-name="Path 552" d="M1638.333,96.654l1.562-1.44a54.841,54.841,0,0,0-12.128-9.943l-1.09,1.825A52.736,52.736,0,0,1,1638.333,96.654Z" fill="#005267"/>
          <path id="Path_553" data-name="Path 553" d="M1657.633,139.7c.948,4.734,1.731,9.709,2.394,15.211l2.106-.256c-.668-5.557-1.46-10.585-2.42-15.375Z" fill="#005267"/>
          <path id="Path_554" data-name="Path 554" d="M1661.786,203.023c-.215,4.748-.549,9.445-1.011,14.161l-.125,1.2,2.108.234.149-1.426c.446-4.553.782-9.289,1-14.075Z" fill="#005267"/>
          <path id="Path_555" data-name="Path 555" d="M1651.608,113.24a73.524,73.524,0,0,0-7.948-13.493l-1.694,1.282a71.474,71.474,0,0,1,7.715,13.1Z" fill="#005267"/>
          <path id="Path_556" data-name="Path 556" d="M1621.674,84.442l.891-1.93a59.829,59.829,0,0,0-9.529-3.456c-1.8-.49-3.613-.906-5.4-1.239l-.386,2.092c1.731.322,3.49.725,5.233,1.2A57.97,57.97,0,0,1,1621.674,84.442Z" fill="#005267"/>
          <path id="Path_557" data-name="Path 557" d="M1659.69,239.694c.427-3.426.976-6.87,1.506-10.2.273-1.719.542-3.414.792-5.077l-2.1-.317c-.248,1.656-.517,3.347-.789,5.057-.534,3.349-1.085,6.812-1.516,10.276Z" fill="#005267"/>
          <path id="Path_558" data-name="Path 558" d="M1673.045,283.376l-1.72,1.248c1.523,2.109,2.656,3.8,3.565,5.311.605,1.01,1.272,2.1,1.983,3.265.843,1.38,1.746,2.858,2.679,4.415l1.819-1.093c-.934-1.563-1.842-3.049-2.69-4.435-.706-1.156-1.369-2.242-1.974-3.248C1675.767,287.27,1674.6,285.536,1673.045,283.376Z" fill="#005267"/>
          <path id="Path_559" data-name="Path 559" d="M1690.511,342.55l-1.679-1.3a17.309,17.309,0,0,1-3.642,3.483,37.4,37.4,0,0,1-8.723,4.308l.679,2.016a39.627,39.627,0,0,0,9.248-4.572A19.491,19.491,0,0,0,1690.511,342.55Z" fill="#005267"/>
          <path id="Path_560" data-name="Path 560" d="M1573.7,358.177c5.153-2.347,9.8-4.236,14.2-5.773l-.7-2.011c-4.469,1.561-9.173,3.472-14.385,5.847Z" fill="#005267"/>
          <path id="Path_561" data-name="Path 561" d="M1526.1,236.051l2.068.478a120.336,120.336,0,0,0,2.514-16.379l-2.112-.191A118.127,118.127,0,0,1,1526.1,236.051Z" fill="#005267"/>
          <path id="Path_562" data-name="Path 562" d="M1543.084,362.811c-5.343,2.829-10.049,5.439-14.385,7.98l1.069,1.837c4.312-2.525,8.99-5.121,14.305-7.935Z" fill="#005267"/>
          <path id="Path_563" data-name="Path 563" d="M1526.953,241.262l-2.038-.586q-.584,2.051-1.277,4.1c-.241.71-.495,1.424-.749,2.138V252.9c1-2.487,1.924-4.976,2.758-7.438Q1526.36,243.357,1526.953,241.262Z" fill="#005267"/>
          <path id="Path_564" data-name="Path 564" d="M1524.541,373.274c-.564.344-1.1.685-1.652,1.027v2.5c.907-.568,1.814-1.136,2.755-1.709Z" fill="#005267"/>
          <path id="Path_565" data-name="Path 565" d="M1532.638,177.664l-2.11-.216c-.581,5.718-.789,11.546-.916,16.5l2.122.054C1531.859,189.09,1532.064,183.311,1532.638,177.664Z" fill="#005267"/>
          <path id="Path_566" data-name="Path 566" d="M1675.157,336.2a15.855,15.855,0,0,0,6.091-9.127l-2.058-.5a13.766,13.766,0,0,1-5.259,7.9,33.355,33.355,0,0,1-5.03,2.786l.858,1.945A35.461,35.461,0,0,0,1675.157,336.2Z" fill="#005267"/>
          <path id="Path_567" data-name="Path 567" d="M1673.584,302.32l1.894-.96c-2.269-4.506-4.823-8.8-6.876-12.254l-1.253-2.116-1.828,1.085,1.258,2.12C1668.815,293.618,1671.35,297.878,1673.584,302.32Z" fill="#005267"/>
          <path id="Path_568" data-name="Path 568" d="M1677.571,305.788l-1.943.857c2.647,6.035,3.965,11.07,4.031,15.4l2.121-.033C1681.71,317.394,1680.332,312.088,1677.571,305.788Z" fill="#005267"/>
          <path id="Path_569" data-name="Path 569" d="M1649.634,252.989a39.662,39.662,0,0,0,1.461,11.393c.145.493.311.983.492,1.473l1.989-.744c-.165-.445-.316-.89-.447-1.338a37.5,37.5,0,0,1-1.374-10.783c0-1.215.04-2.445.108-3.678l-2.117-.121Q1649.636,251.1,1649.634,252.989Z" fill="#005267"/>
          <path id="Path_570" data-name="Path 570" d="M1651.378,234.888c-.443,3.074-.9,6.253-1.234,9.431l2.108.224c.332-3.138.786-6.3,1.224-9.351.342-2.374.678-4.7.943-6.937l-2.1-.254C1652.049,230.224,1651.717,232.532,1651.378,234.888Z" fill="#005267"/>
          <path id="Path_571" data-name="Path 571" d="M1655.6,206.9l-2.121-.021c-.058,5.513-.292,11.016-.7,16.356l2.117.162C1655.3,218.007,1655.538,212.459,1655.6,206.9Z" fill="#005267"/>
          <path id="Path_572" data-name="Path 572" d="M1601.5,337.191a106.319,106.319,0,0,0-15.792,4.92l.77,1.982a104.115,104.115,0,0,1,15.482-4.823Z" fill="#005267"/>
          <path id="Path_573" data-name="Path 573" d="M1582.044,345.918l-.833-1.958c-5.173,2.221-10.213,4.682-14.891,7.016l.945,1.9C1571.914,350.562,1576.921,348.114,1582.044,345.918Z" fill="#005267"/>
          <path id="Path_574" data-name="Path 574" d="M1537.019,157.125l-2.013-.674a95.9,95.9,0,0,0-3.88,16.151l2.1.315A94.224,94.224,0,0,1,1537.019,157.125Z" fill="#005267"/>
          <path id="Path_575" data-name="Path 575" d="M1622.679,338.011l.223-2.116a58.149,58.149,0,0,0-14.034-.01q-1.3.17-2.583.382l.345,2.1c.831-.137,1.667-.263,2.513-.371A56.171,56.171,0,0,1,1622.679,338.011Z" fill="#005267"/>
          <path id="Path_576" data-name="Path 576" d="M1545.8,138.05l-1.815-1.1a96.569,96.569,0,0,0-7.316,14.9l1.976.773A94.276,94.276,0,0,1,1545.8,138.05Z" fill="#005267"/>
          <path id="Path_577" data-name="Path 577" d="M1648.625,339.819l-.2,2.119c2.088.2,3.988.294,5.8.294h.056a40.073,40.073,0,0,0,10.788-1.362l-.564-2.052a38,38,0,0,1-10.226,1.286A48.142,48.142,0,0,1,1648.625,339.819Z" fill="#005267"/>
          <path id="Path_578" data-name="Path 578" d="M1643.59,341.346l.3-2.107c-2.754-.4-5.53-.893-8.321-1.392-2.6-.465-5.217-.931-7.844-1.326l-.314,2.1c2.608.392,5.2.856,7.787,1.317C1638.016,340.444,1640.812,340.943,1643.59,341.346Z" fill="#005267"/>
          <path id="Path_579" data-name="Path 579" d="M1529.492,199.145c-.112,5.23-.226,10.64-.563,16.019l2.117.132c.339-5.42.456-10.851.568-16.106l.009-.368-2.122-.045Z" fill="#005267"/>
          <path id="Path_580" data-name="Path 580" d="M1650.382,164.663c.822,4.936,1.492,10.248,2.042,16.24l2.113-.2c-.557-6.043-1.23-11.407-2.063-16.4Z" fill="#005267"/>
          <path id="Path_581" data-name="Path 581" d="M1652.822,185.7c.392,5.356.611,10.86.657,16.359l2.122-.016c-.046-5.547-.269-11.1-.661-16.5Z" fill="#005267"/>
          <path id="Path_582" data-name="Path 582" d="M1645.337,144.191a118.924,118.924,0,0,1,4.179,15.742l2.08-.416a120.95,120.95,0,0,0-4.253-16.024Z" fill="#005267"/>
          <path id="Path_583" data-name="Path 583" d="M1546.621,132.834l1.753,1.2a78.225,78.225,0,0,1,10.394-12.383l-1.467-1.538A80.615,80.615,0,0,0,1546.621,132.834Z" fill="#005267"/>
          <path id="Path_584" data-name="Path 584" d="M1621.53,110.028l-1.019,1.866a46.306,46.306,0,0,1,12.424,10l1.587-1.411A48.386,48.386,0,0,0,1621.53,110.028Z" fill="#005267"/>
          <path id="Path_585" data-name="Path 585" d="M1600.971,103.782l-.21,2.117a54.662,54.662,0,0,1,9.4,1.8,50.563,50.563,0,0,1,6.119,2.139l.828-1.96a52.8,52.8,0,0,0-6.372-2.227A56.789,56.789,0,0,0,1600.971,103.782Z" fill="#005267"/>
          <path id="Path_586" data-name="Path 586" d="M1635.9,125.582a66.464,66.464,0,0,1,7.759,14.143l1.964-.809a68.846,68.846,0,0,0-8.011-14.594Z" fill="#005267"/>
          <path id="Path_587" data-name="Path 587" d="M1653.707,270.375a95.519,95.519,0,0,0,6.192,9.3c1.065,1.472,2.117,2.927,3.093,4.359l1.753-1.2c-.988-1.453-2.051-2.924-3.128-4.412a94.053,94.053,0,0,1-6.058-9.086Z" fill="#005267"/>
          <path id="Path_588" data-name="Path 588" d="M1579.616,106.194l.675,2.018a48.476,48.476,0,0,1,15.526-2.559h.234v-2.128h-.234A50.594,50.594,0,0,0,1579.616,106.194Z" fill="#005267"/>
          <path id="Path_589" data-name="Path 589" d="M1560.952,116.844l1.354,1.637a58.283,58.283,0,0,1,13.589-8.553l-.858-1.945A60.382,60.382,0,0,0,1560.952,116.844Z" fill="#005267"/>
          <path id="Path_590" data-name="Path 590" d="M1562.953,355.044l-.948-1.9c-4.893,2.454-9.784,4.915-14.639,7.431l.973,1.891C1553.185,359.95,1558.068,357.493,1562.953,355.044Z" fill="#005267"/>
          <path id="Path_591" data-name="Path 591" d="M1650.964,278.113c1.589,2.275,3.091,4.426,4.273,6.54.456.814.957,1.691,1.487,2.62l.772,1.351,1.843-1.056-.772-1.353c-.529-.922-1.026-1.793-1.479-2.6-1.235-2.207-2.766-4.4-4.386-6.718-.928-1.331-1.869-2.677-2.757-4.036l-1.774,1.164C1649.07,275.4,1650.023,276.763,1650.964,278.113Z" fill="#005267"/>
          <path id="Path_592" data-name="Path 592" d="M1533.969,249.247a94.252,94.252,0,0,0,3.637-13.693l-2.083-.4a92.116,92.116,0,0,1-3.555,13.384c-.371,1.053-.757,2.107-1.154,3.154l1.984.757Q1533.4,250.852,1533.969,249.247Z" fill="#005267"/>
          <path id="Path_593" data-name="Path 593" d="M1537.69,357.87c-5.4,3.227-10.164,6.378-14.575,9.627l1.257,1.717c4.355-3.211,9.068-6.324,14.4-9.516Z" fill="#005267"/>
          <path id="Path_594" data-name="Path 594" d="M1638.693,169.163a124.313,124.313,0,0,1,3.741,16.847l2.1-.332a126.548,126.548,0,0,0-3.808-17.135Z" fill="#005267"/>
          <path id="Path_595" data-name="Path 595" d="M1645.093,189.526l-2.1.292c.3,2.218.564,4.422.8,6.6.368,3.442.654,7.022.852,10.643l2.117-.117c-.2-3.656-.487-7.274-.861-10.755C1645.664,193.991,1645.4,191.766,1645.093,189.526Z" fill="#005267"/>
          <path id="Path_596" data-name="Path 596" d="M1608.972,328.705a43.654,43.654,0,0,1,6.354-.437l.841.006.029-2.128-.87-.006a45.923,45.923,0,0,0-6.658.457,77.44,77.44,0,0,0-9.881,2.121l.572,2.05A75.164,75.164,0,0,1,1608.972,328.705Z" fill="#005267"/>
          <path id="Path_597" data-name="Path 597" d="M1641.169,328.941l-.165,2.12c1.592.124,3.055.185,4.469.185a33.424,33.424,0,0,0,13.077-2.39l-.812-1.965a31.4,31.4,0,0,1-12.265,2.228C1644.114,329.119,1642.706,329.059,1641.169,328.941Z" fill="#005267"/>
          <path id="Path_598" data-name="Path 598" d="M1644.614,254.97q0-.807.025-1.624l-2.122-.062c-.016.566-.024,1.126-.024,1.685a35.964,35.964,0,0,0,1.307,10.322,27.311,27.311,0,0,0,2.325,5.356l1.855-1.032a25.072,25.072,0,0,1-2.148-4.934A33.948,33.948,0,0,1,1644.614,254.97Z" fill="#005267"/>
          <path id="Path_599" data-name="Path 599" d="M1570.79,342.792l1.146-.567q2.2-1.09,4.373-2.149l-.925-1.916q-2.187,1.063-4.39,2.158l-1.144.567q-5.025,2.488-10.04,5l.953,1.9Q1565.762,345.268,1570.79,342.792Z" fill="#005267"/>
          <path id="Path_600" data-name="Path 600" d="M1637.119,330.671l.253-2.111c-2.1-.254-4.212-.567-6.342-.883-3.555-.525-7.235-1.069-10.918-1.347l-.158,2.125c3.607.27,7.247.808,10.766,1.327C1632.869,330.1,1635,330.415,1637.119,330.671Z" fill="#005267"/>
          <path id="Path_601" data-name="Path 601" d="M1659.385,291.981c2.2,4.014,5.306,10,6.81,15.7l2.051-.545c-1.565-5.92-4.747-12.068-7.006-16.178Z" fill="#005267"/>
          <path id="Path_602" data-name="Path 602" d="M1645.762,241c.38-3.093.735-6.014.913-8.792l-2.117-.137c-.174,2.717-.526,5.607-.9,8.669-.344,2.815-.7,5.729-.926,8.632l2.114.167C1645.068,246.678,1645.419,243.789,1645.762,241Z" fill="#005267"/>
          <path id="Path_603" data-name="Path 603" d="M1644.813,210.907c.1,2.626.144,5.313.144,7.982,0,3.144-.068,6.286-.2,9.341l2.121.092c.131-3.084.2-6.258.2-9.433,0-2.7-.05-5.407-.145-8.062Z" fill="#005267"/>
          <path id="Path_604" data-name="Path 604" d="M1662.669,324.2q-.808.554-1.619,1.033l1.077,1.832c.583-.344,1.163-.713,1.8-1.154a14.2,14.2,0,0,0,5.336-11.7,23.477,23.477,0,0,0-.224-3.161l-2.1.286a21.488,21.488,0,0,1,.2,2.874C1667.142,318.529,1665.658,321.81,1662.669,324.2Z" fill="#005267"/>
          <path id="Path_605" data-name="Path 605" d="M1595.715,331.878l-.659-2.024a139.158,139.158,0,0,0-16.18,6.629l.9,1.925A136.943,136.943,0,0,1,1595.715,331.878Z" fill="#005267"/>
          <path id="Path_606" data-name="Path 606" d="M1542.292,189.026a81.25,81.25,0,0,1,4.363-16.241l-1.981-.76a83.435,83.435,0,0,0-4.477,16.661l-.056.356,2.1.312Z" fill="#005267"/>
          <path id="Path_607" data-name="Path 607" d="M1574.685,137.9a42.3,42.3,0,0,1,15.973-5.239l-.235-2.115a44.434,44.434,0,0,0-16.774,5.5Z" fill="#005267"/>
          <path id="Path_608" data-name="Path 608" d="M1540.394,209.245c.352-5.585.684-10.859,1.32-16.088l-2.106-.256c-.645,5.291-.977,10.6-1.332,16.211l-.074,1.2,2.117.133Z" fill="#005267"/>
          <path id="Path_609" data-name="Path 609" d="M1540.071,214.309l-2.117-.146c-.343,5.112-.824,11.153-1.778,17.214l2.1.332C1539.238,225.566,1539.722,219.465,1540.071,214.309Z" fill="#005267"/>
          <path id="Path_610" data-name="Path 610" d="M1629.89,150.267a62.623,62.623,0,0,1,7.616,15.262l2-.708a64.8,64.8,0,0,0-7.885-15.781Z" fill="#005267"/>
          <path id="Path_611" data-name="Path 611" d="M1531.37,256.072l-1.964-.807c-1.914,4.687-4.113,9.353-6.517,13.911v2.188l.971.53A161.282,161.282,0,0,0,1531.37,256.072Z" fill="#005267"/>
          <path id="Path_612" data-name="Path 612" d="M1594.363,130.285l.037,2.128.828-.009a44.472,44.472,0,0,1,12.6,1.884q1.631.483,3.167,1.063l.75-1.991q-1.611-.609-3.316-1.113a46.547,46.547,0,0,0-13.2-1.97Z" fill="#005267"/>
          <path id="Path_613" data-name="Path 613" d="M1558.94,151.374a58.1,58.1,0,0,1,12.53-11.5l-1.177-1.773a60.354,60.354,0,0,0-12.989,11.92Z" fill="#005267"/>
          <path id="Path_614" data-name="Path 614" d="M1614.443,136.839a39.8,39.8,0,0,1,13.154,10.425l1.627-1.363a41.879,41.879,0,0,0-13.853-10.973Z" fill="#005267"/>
          <path id="Path_615" data-name="Path 615" d="M1557.329,349.528l-.966-1.9c-5.975,3.06-10.845,5.689-15.33,8.273l1.056,1.845C1546.543,355.184,1551.385,352.572,1557.329,349.528Z" fill="#005267"/>
          <path id="Path_616" data-name="Path 616" d="M1548.1,169.249a77.4,77.4,0,0,1,8.505-14.87l-1.708-1.262a79.438,79.438,0,0,0-8.741,15.28Z" fill="#005267"/>
          <path id="Path_617" data-name="Path 617" d="M1572.064,331.377l.928,1.913,6.087-2.957c3.331-1.62,6.88-3.328,10.437-4.873l-.846-1.954c-3.592,1.565-7.166,3.284-10.518,4.911Z" fill="#005267"/>
          <path id="Path_618" data-name="Path 618" d="M1630.374,320.02l.178-2.12c-1.372-.116-2.756-.258-4.15-.4a82.794,82.794,0,0,0-14.287-.616l.15,2.124a80.745,80.745,0,0,1,13.921.609C1627.592,319.76,1628.989,319.9,1630.374,320.02Z" fill="#005267"/>
          <path id="Path_619" data-name="Path 619" d="M1554.183,342.992c5.736-3.23,11.678-6.2,16.211-8.431l-.932-1.911c-4.56,2.242-10.535,5.23-16.319,8.484Z" fill="#005267"/>
          <path id="Path_620" data-name="Path 620" d="M1555.951,184.6l1.885.978a58.6,58.6,0,0,1,10.474-14.591l-1.5-1.5A60.722,60.722,0,0,0,1555.951,184.6Z" fill="#005267"/>
          <path id="Path_621" data-name="Path 621" d="M1592.16,324.343a76.306,76.306,0,0,1,16.654-4.934l.653-.1-.307-2.107-.692.111a78.225,78.225,0,0,0-17.108,5.062Z" fill="#005267"/>
          <path id="Path_622" data-name="Path 622" d="M1588.12,157.632l.395,2.091a34.794,34.794,0,0,1,16.979,1.154l.551.178.675-2.018-.59-.191A36.883,36.883,0,0,0,1588.12,157.632Z" fill="#005267"/>
          <path id="Path_623" data-name="Path 623" d="M1568.964,167.45l1.408,1.588a38.743,38.743,0,0,1,15.412-8.679l-.568-2.051A40.8,40.8,0,0,0,1568.964,167.45Z" fill="#005267"/>
          <path id="Path_624" data-name="Path 624" d="M1523.954,284.789l1.773,1.172a160.188,160.188,0,0,0,9.2-16.031l-1.893-.956A158.143,158.143,0,0,1,1523.954,284.789Z" fill="#005267"/>
          <path id="Path_625" data-name="Path 625" d="M1522.889,287.553v2.536c.4-.567.808-1.118,1.209-1.7Z" fill="#005267"/>
          <path id="Path_626" data-name="Path 626" d="M1609.5,160.086l-.829,1.96a33.621,33.621,0,0,1,13.757,10.922l1.69-1.284A35.707,35.707,0,0,0,1609.5,160.086Z" fill="#005267"/>
          <path id="Path_627" data-name="Path 627" d="M1543.27,250.211l-2.015-.669q-.453,1.374-.961,2.751c-1.746,4.711-3.762,9.454-5.993,14.094l1.909.924c2.261-4.7,4.3-9.5,6.072-14.277Q1542.805,251.621,1543.27,250.211Z" fill="#005267"/>
          <path id="Path_628" data-name="Path 628" d="M1638.057,246.753c.241-2.652.466-5.157.535-7.545q.038-1.35.055-2.714l-2.121-.029c-.012.9-.031,1.793-.056,2.686-.064,2.319-.288,4.792-.526,7.412-.242,2.687-.495,5.465-.581,8.224l2.121.067C1637.568,252.157,1637.816,249.41,1638.057,246.753Z" fill="#005267"/>
          <path id="Path_629" data-name="Path 629" d="M1624.056,175.286a60.343,60.343,0,0,1,7.208,16.475l2.038-.589a62.439,62.439,0,0,0-7.473-17.054Z" fill="#005267"/>
          <path id="Path_630" data-name="Path 630" d="M1534.289,356.286l-1.328-1.659c-2.247,1.81-4.576,3.767-6.975,5.786-1.017.856-2.053,1.725-3.1,2.6v2.76c1.51-1.252,3-2.5,4.46-3.726C1529.738,360.038,1532.052,358.087,1534.289,356.286Z" fill="#005267"/>
          <path id="Path_631" data-name="Path 631" d="M1637.461,257.7l-2.122.041a31.876,31.876,0,0,0,1.165,8.456,36.278,36.278,0,0,0,4.776,9.206l1.773-1.167a34.585,34.585,0,0,1-4.514-8.646A29.717,29.717,0,0,1,1637.461,257.7Z" fill="#005267"/>
          <path id="Path_632" data-name="Path 632" d="M1635.594,215.343a179.174,179.174,0,0,1,.948,18.238l2.122,0a180.92,180.92,0,0,0-.962-18.458Z" fill="#005267"/>
          <path id="Path_633" data-name="Path 633" d="M1634.071,194l-2.055.528a141.925,141.925,0,0,1,3.035,16.26l.217,1.688,2.1-.263-.222-1.71A143.445,143.445,0,0,0,1634.071,194Z" fill="#005267"/>
          <path id="Path_634" data-name="Path 634" d="M1644.652,276.655l-1.774,1.169c.83,1.267,1.78,2.755,2.529,4.177.392.744.823,1.542,1.279,2.385,1.535,2.845,3.275,6.071,4.76,9.47l1.943-.852c-1.521-3.483-3.284-6.75-4.837-9.63-.452-.838-.881-1.63-1.268-2.368C1646.491,279.505,1645.508,277.964,1644.652,276.655Z" fill="#005267"/>
          <path id="Path_635" data-name="Path 635" d="M1551.656,202.947a69.235,69.235,0,0,1,4.925-14.807l-1.923-.9a71.373,71.373,0,0,0-5.077,15.262q-.261,1.231-.491,2.479l2.088.386Q1551.4,204.149,1551.656,202.947Z" fill="#005267"/>
          <path id="Path_636" data-name="Path 636" d="M1547.912,229.284l-2.1-.3a125.325,125.325,0,0,1-3.7,17.825l2.035.6A127.541,127.541,0,0,0,1547.912,229.284Z" fill="#005267"/>
          <path id="Path_637" data-name="Path 637" d="M1547.026,219.546c-.262,2.165-.526,4.358-.821,6.574l2.1.278c.292-2.223.56-4.422.823-6.6.486-4.036.948-7.848,1.551-11.594l-2.092-.342C1547.981,211.655,1547.517,215.489,1547.026,219.546Z" fill="#005267"/>
          <path id="Path_638" data-name="Path 638" d="M1653.985,314.31a12.432,12.432,0,0,0,2.761-8.251,29.536,29.536,0,0,0-2.237-10.322l-1.984.758a27.475,27.475,0,0,1,2.1,9.565,10.219,10.219,0,0,1-2.265,6.879Z" fill="#005267"/>
          <path id="Path_639" data-name="Path 639" d="M1535.252,352.816l1.3,1.683c.624-.484,1.239-.954,1.845-1.4a142.284,142.284,0,0,1,13.288-8.674l-1.065-1.842a144.766,144.766,0,0,0-13.485,8.8C1536.517,351.843,1535.888,352.323,1535.252,352.816Z" fill="#005267"/>
          <path id="Path_640" data-name="Path 640" d="M1636.339,318.186c-.971,0-1.949-.031-2.935-.083l-.111,2.124c1.022.055,2.038.087,3.047.087,6.13,0,10.962-1.244,15.2-3.92l-1.128-1.8C1646.472,317.077,1642.132,318.186,1636.339,318.186Z" fill="#005267"/>
          <path id="Path_641" data-name="Path 641" d="M1550.6,256.823a113.607,113.607,0,0,0,4.389-13.857l-2.056-.523a111.941,111.941,0,0,1-4.3,13.6q-.9,2.271-1.863,4.538l1.952.836Q1549.689,259.126,1550.6,256.823Z" fill="#005267"/>
          <path id="Path_642" data-name="Path 642" d="M1634.929,273.87a33.6,33.6,0,0,1-3.686-7.37,23.064,23.064,0,0,1-.748-3.773l-2.1.254a24.8,24.8,0,0,0,.818,4.121,35.054,35.054,0,0,0,3.9,7.871c.918,1.519,1.784,2.953,2.458,4.366l.727,1.5,1.906-.935-.718-1.483C1636.766,276.913,1635.832,275.367,1634.929,273.87Z" fill="#005267"/>
          <path id="Path_643" data-name="Path 643" d="M1555.168,334.9c2.678-1.842,5.589-3.641,8.9-5.5l-1.035-1.857c-3.368,1.889-6.332,3.72-9.063,5.6-2.37,1.626-4.891,3.568-7.068,5.259l1.3,1.684C1550.354,338.417,1552.843,336.5,1555.168,334.9Z" fill="#005267"/>
          <path id="Path_644" data-name="Path 644" d="M1528.075,351.566a47.851,47.851,0,0,1-5.186,2.4v2.263a48.17,48.17,0,0,0,6.181-2.782Z" fill="#005267"/>
          <path id="Path_645" data-name="Path 645" d="M1627.529,220.292l-2.076.44c.315,1.488.6,2.976.865,4.452a133.415,133.415,0,0,1,1.74,14.548l2.117-.141a135.532,135.532,0,0,0-1.77-14.785C1628.137,223.309,1627.848,221.8,1627.529,220.292Z" fill="#005267"/>
          <path id="Path_646" data-name="Path 646" d="M1603.661,187.64c5.738,2.133,10.307,5.983,13.967,11.77l1.79-1.139a30.084,30.084,0,0,0-15.021-12.627Z" fill="#005267"/>
          <path id="Path_647" data-name="Path 647" d="M1630.292,241.535l-2.117.116c.089,1.649.152,3.289.188,4.911.009.372.013.749.013,1.126,0,1.538-.061,3.144-.124,4.787-.066,1.733-.134,3.5-.134,5.262,0,1.093.022,2.182.09,3.259l2.117-.133c-.064-1.03-.089-2.073-.086-3.123,0-1.733.066-3.475.133-5.184.064-1.668.127-3.3.127-4.867,0-.395-.005-.787-.012-1.174C1630.448,244.868,1630.385,243.2,1630.292,241.535Z" fill="#005267"/>
          <path id="Path_648" data-name="Path 648" d="M1583.758,187.939a25.8,25.8,0,0,1,10.164-2.1h.02a27.51,27.51,0,0,1,7.95,1.214l.613-2.037a29.542,29.542,0,0,0-8.563-1.306h-.02a27.866,27.866,0,0,0-10.993,2.276Z" fill="#005267"/>
          <path id="Path_649" data-name="Path 649" d="M1545.375,339.594a139,139,0,0,1-15.637,11.051l1.052,1.846a139.739,139.739,0,0,0,15.885-11.218Z" fill="#005267"/>
          <path id="Path_650" data-name="Path 650" d="M1582.985,319.96l-.9-1.929c-6.535,3.064-11.962,5.641-17.355,8.577l1.011,1.87C1571.085,325.568,1576.481,323.006,1582.985,319.96Z" fill="#005267"/>
          <path id="Path_651" data-name="Path 651" d="M1547.954,263.2l-1.944-.848c-2.638,6.081-5.48,11.893-8.444,17.278l1.857,1.03C1542.421,275.214,1545.29,269.34,1547.954,263.2Z" fill="#005267"/>
          <path id="Path_652" data-name="Path 652" d="M1637.147,282.574c2.4,4.934,4.956,10.594,4.956,15.36a10.714,10.714,0,0,1-.244,2.341l2.067.47a12.665,12.665,0,0,0,.3-2.811c0-5.219-2.668-11.145-5.171-16.292Z" fill="#005267"/>
          <path id="Path_653" data-name="Path 653" d="M1643.23,302.793l-1.918-.911a7.4,7.4,0,0,1-1.185,1.8c-4.178,3.1-8.761,3.731-14.354,3.731l-.819-.005-.016,2.129.836,0c5.2,0,10.7-.5,15.746-4.263A9.257,9.257,0,0,0,1643.23,302.793Z" fill="#005267"/>
          <path id="Path_654" data-name="Path 654" d="M1529.582,296.034a116.849,116.849,0,0,0,8.891-13.679l-1.844-1.051a114.447,114.447,0,0,1-8.726,13.429,60.715,60.715,0,0,1-5.015,5.686v2.973A64.986,64.986,0,0,0,1529.582,296.034Z" fill="#005267"/>
          <path id="Path_655" data-name="Path 655" d="M1568.36,201.265a37.829,37.829,0,0,1,13.715-12.542l-.953-1.9a39.952,39.952,0,0,0-14.51,13.235Z" fill="#005267"/>
          <path id="Path_656" data-name="Path 656" d="M1618.594,201.027a65.262,65.262,0,0,1,6.449,17.832l2.067-.474a67.392,67.392,0,0,0-6.673-18.414Z" fill="#005267"/>
          <path id="Path_657" data-name="Path 657" d="M1557.735,230.755c.619-2.957,1.22-5.823,1.877-8.57l-2.063-.494c-.661,2.763-1.267,5.647-1.889,8.628-.7,3.319-1.417,6.753-2.266,10.258l2.063.5C1556.312,237.542,1557.035,234.093,1557.735,230.755Z" fill="#005267"/>
          <path id="Path_658" data-name="Path 658" d="M1565.526,201.7a58.2,58.2,0,0,0-6.551,14.586c-.339,1.141-.656,2.311-.961,3.5l2.055.528q.445-1.753.941-3.426a56.134,56.134,0,0,1,6.307-14.055Z" fill="#005267"/>
          <path id="Path_659" data-name="Path 659" d="M1608.666,310.114a43.5,43.5,0,0,1,8.674-.724c1.428,0,2.84.035,4.234.072l1.419.035.045-2.129-1.412-.033c-1.412-.038-2.841-.073-4.287-.073a45.533,45.533,0,0,0-9.087.764c-1.518.3-3.078.68-4.633,1.121l.576,2.048C1605.7,310.77,1607.2,310.407,1608.666,310.114Z" fill="#005267"/>
          <path id="Path_660" data-name="Path 660" d="M1586.218,318.441a131.209,131.209,0,0,1,16.162-6.7l-.639-2.028a132.907,132.907,0,0,0-16.421,6.8l-1.488.7.9,1.929Z" fill="#005267"/>
          <path id="Path_661" data-name="Path 661" d="M1534.913,305.168c.834-1.2,1.829-2.442,2.881-3.757a59.782,59.782,0,0,0,6.72-9.748l-1.877-.994a58.048,58.048,0,0,1-6.5,9.41c-1.075,1.342-2.092,2.613-2.968,3.872a29.878,29.878,0,0,0-2.062,3.385l1.885.976A27.655,27.655,0,0,1,1534.913,305.168Z" fill="#005267"/>
          <path id="Path_662" data-name="Path 662" d="M1544.749,291.217c2.287-4.393,5.15-10.408,8.749-18.388l-1.931-.877c-3.584,7.942-6.429,13.921-8.7,18.28Z" fill="#005267"/>
          <path id="Path_663" data-name="Path 663" d="M1565.31,243.951c1.369-3.84,2.662-7.468,3.983-10.647l-1.96-.818c-1.338,3.227-2.641,6.88-4.019,10.748-.953,2.67-1.949,5.465-3.033,8.328l1.984.757C1563.354,249.441,1564.353,246.634,1565.31,243.951Z" fill="#005267"/>
          <path id="Path_664" data-name="Path 664" d="M1539.627,327.291a10.97,10.97,0,0,1-2.574-.958l-.986,1.882a13.023,13.023,0,0,0,3.076,1.147,19.073,19.073,0,0,0,4.318.49c3.938,0,8.187-1.189,12.989-3.637l-.961-1.9C1549.354,327.45,1544.244,328.368,1539.627,327.291Z" fill="#005267"/>
          <path id="Path_665" data-name="Path 665" d="M1625.725,276.641l.588,1.475c1.362,3.392,3.055,7.612,3.254,11.114l2.117-.121c-.215-3.85-1.983-8.253-3.4-11.788l-.584-1.463c-.453-1.151-1.04-2.33-1.607-3.466-.44-.883-.886-1.777-1.28-2.682l-1.943.857c.41.935.869,1.861,1.325,2.776C1624.762,274.492,1625.3,275.574,1625.725,276.641Z" fill="#005267"/>
          <path id="Path_666" data-name="Path 666" d="M1622.747,258.416c-.1-1.592-.2-3.157-.378-4.642-.189-1.573-.407-3.164-.658-4.754l-2.1.333c.247,1.565.46,3.13.648,4.679.174,1.444.269,2.97.367,4.519a44.147,44.147,0,0,0,1.283,9.454c.159.547.349,1.091.564,1.634l1.972-.782c-.189-.48-.358-.963-.5-1.449A42.519,42.519,0,0,1,1622.747,258.416Z" fill="#005267"/>
          <path id="Path_667" data-name="Path 667" d="M1568.4,230.021c-.23.509-.461,1.029-.69,1.566l1.952.839c.222-.52.443-1.027.669-1.519,2.795-6.135,6.522-11.076,10.775-14.292l-1.276-1.7C1575.3,218.343,1571.344,223.567,1568.4,230.021Z" fill="#005267"/>
          <path id="Path_668" data-name="Path 668" d="M1600.112,213.762l.763-1.987a20.922,20.922,0,0,0-20.229,2.55l1.214,1.745A18.8,18.8,0,0,1,1600.112,213.762Z" fill="#005267"/>
          <path id="Path_669" data-name="Path 669" d="M1613.625,299.81l-.3-2.107a47.117,47.117,0,0,0-5.314,1.047,97.375,97.375,0,0,0-14.16,5.26l.849,1.949a95.818,95.818,0,0,1,13.849-5.151A45.413,45.413,0,0,1,1613.625,299.81Z" fill="#005267"/>
          <path id="Path_670" data-name="Path 670" d="M1614.288,297.57l.282,2.107q1.131-.149,2.23-.283c4.929-.611,9.585-1.186,13.375-4.31l.213-.239a8.725,8.725,0,0,0,1.313-4.689l-2.121-.041a6.668,6.668,0,0,1-.881,3.429c-3.291,2.642-7.406,3.148-12.161,3.736C1615.8,297.372,1615.048,297.465,1614.288,297.57Z" fill="#005267"/>
          <path id="Path_671" data-name="Path 671" d="M1601.806,212.158l-.845,1.954c5.333,2.321,9.5,6.949,12.746,14.15l1.934-.877C1612.17,219.681,1607.642,214.7,1601.806,212.158Z" fill="#005267"/>
          <path id="Path_672" data-name="Path 672" d="M1535.155,327.686l1.144-1.791a11.927,11.927,0,0,1-5.026-7.531,13.3,13.3,0,0,1-.261-2.623,15.424,15.424,0,0,1,1.576-6.6l-1.922-.9a17.514,17.514,0,0,0-1.776,7.5,15.37,15.37,0,0,0,.3,3.04A13.928,13.928,0,0,0,1535.155,327.686Z" fill="#005267"/>
          <path id="Path_673" data-name="Path 673" d="M1589.809,308.1l4-1.749-.846-1.954-4,1.753c-4.849,2.115-9.867,4.3-14.481,6.721l.982,1.886C1580.012,312.371,1584.992,310.2,1589.809,308.1Z" fill="#005267"/>
          <path id="Path_674" data-name="Path 674" d="M1553.9,271.946c1.66-3.695,3.35-7.522,5.01-11.32.992-2.283,1.976-4.7,3.008-7.4l-1.981-.76c-1.021,2.665-1.993,5.058-2.972,7.31-1.655,3.789-3.341,7.609-5,11.295Z" fill="#005267"/>
          <path id="Path_675" data-name="Path 675" d="M1614.089,229.128a76.811,76.811,0,0,1,3.506,10.484c.717,2.692,1.344,5.65,1.867,8.8l2.092-.349c-.532-3.211-1.175-6.237-1.908-8.994a79.464,79.464,0,0,0-3.605-10.776Z" fill="#005267"/>
          <path id="Path_676" data-name="Path 676" d="M1566.27,320.287c1.977-1.3,3.842-2.517,5.631-3.563q1.336-.778,2.72-1.521l-1-1.879q-1.421.76-2.789,1.561c-1.835,1.072-3.724,2.309-5.724,3.618-2.828,1.854-5.751,3.768-8.784,5.382l.995,1.879C1560.438,324.106,1563.4,322.163,1566.27,320.287Z" fill="#005267"/>
          <path id="Path_677" data-name="Path 677" d="M1561.855,298.972c2.611,2.012,6.1,2.752,9.882,2.752,5.571,0,11.777-1.607,16.743-3.119,11.026-3.359,26.193-8.459,30.593-13.947l.24-.3-.006-.383c-.187-13.277-9.466-41.955-23.458-47.114-6.037-2.226-12.057.057-17.906,6.768-7.857,9.018-20.209,31.994-20.594,43.282C1557.161,292.466,1558.677,296.524,1561.855,298.972Zm17.685-53.94c3.968-4.555,7.954-6.848,11.893-6.848a10.614,10.614,0,0,1,3.686.676c12.536,4.621,21.7,31.534,22.059,44.75-4.9,5.519-23.222,11.1-29.315,12.958-12.364,3.767-20.448,4-24.715.718-2.6-2.008-3.844-5.473-3.678-10.3C1559.833,276.306,1572.057,253.621,1579.541,245.032Z" fill="#005267"/>
        </g>
      </g>
    </g>
  </g>
</svg>
