<?xml version="1.0" standalone="no"?>
<!DOCTYPE svg PUBLIC "-//W3C//DTD SVG 1.1//EN" "http://www.w3.org/Graphics/SVG/1.1/DTD/svg11.dtd" >
<svg xmlns="http://www.w3.org/2000/svg">
<metadata>
Created by FontForge 20120731 at Wed Dec 30 16:10:50 2015
 By Ads
</metadata>
<defs>
<font id="iconfont" horiz-adv-x="1024" >
  <font-face 
    font-family="iconfont"
    font-weight="500"
    font-stretch="normal"
    units-per-em="1024"
    panose-1="2 0 6 3 0 0 0 0 0 0"
    ascent="896"
    descent="-128"
    x-height="792"
    bbox="0 -212 1138 896"
    underline-thickness="50"
    underline-position="-100"
    unicode-range="U+0078-E613"
  />
<missing-glyph horiz-adv-x="374" 
d="M34 0v682h272v-682h-272zM68 34h204v614h-204v-614z" />
    <glyph glyph-name=".notdef" horiz-adv-x="374" 
d="M34 0v682h272v-682h-272zM68 34h204v614h-204v-614z" />
    <glyph glyph-name=".null" horiz-adv-x="0" 
 />
    <glyph glyph-name="nonmarkingreturn" horiz-adv-x="341" 
 />
    <glyph glyph-name="x" unicode="x" horiz-adv-x="1001" 
d="M281 543q-27 -1 -53 -1h-83q-18 0 -36.5 -6t-32.5 -18.5t-23 -32t-9 -45.5v-76h912v41q0 16 -0.5 30t-0.5 18q0 13 -5 29t-17 29.5t-31.5 22.5t-49.5 9h-133v-97h-438v97zM955 310v-52q0 -23 0.5 -52t0.5 -58t-10.5 -47.5t-26 -30t-33 -16t-31.5 -4.5q-14 -1 -29.5 -0.5
t-29.5 0.5h-32l-45 128h-439l-44 -128h-29h-34q-20 0 -45 1q-25 0 -41 9.5t-25.5 23t-13.5 29.5t-4 30v167h911zM163 247q-12 0 -21 -8.5t-9 -21.5t9 -21.5t21 -8.5q13 0 22 8.5t9 21.5t-9 21.5t-22 8.5zM316 123q-8 -26 -14 -48q-5 -19 -10.5 -37t-7.5 -25t-3 -15t1 -14.5
t9.5 -10.5t21.5 -4h37h67h81h80h64h36q23 0 34 12t2 38q-5 13 -9.5 30.5t-9.5 34.5q-5 19 -11 39h-368zM336 498v228q0 11 2.5 23t10 21.5t20.5 15.5t34 6h188q31 0 51.5 -14.5t20.5 -52.5v-227h-327z" />
    <glyph glyph-name="uniE600" unicode="&#xe600;" 
d="M964 654q25 0 42.5 -16.5t17.5 -42.5v-572q0 -25 -17.5 -43t-42.5 -18h-905q-24 0 -41.5 18t-17.5 43v572q0 26 17.5 42.5t41.5 16.5h222l20 62q0 12 14.5 28t33.5 29.5t39.5 23t32.5 9.5h211q12 0 32.5 -9.5t40 -23t34 -29.5t14.5 -28l19 -62h192zM489 716
q-16 0 -26.5 -9t-10.5 -22q0 -12 10.5 -21.5t26.5 -9.5h75q17 0 27.5 9.5t10.5 21.5q0 13 -10.5 22t-27.5 9h-75zM512 83q49 0 93 19t77 51.5t52 76.5t19 94.5t-19 94t-52 75.5t-77 51t-93 19q-50 0 -94 -19t-77 -51t-52 -75.5t-19 -94t19 -94.5t52 -76.5t77 -51.5t94 -19z
M512 505q38 0 70.5 -14.5t57.5 -39t38.5 -57.5t13.5 -69q0 -38 -13.5 -71.5t-38.5 -58t-57.5 -39t-70.5 -14.5t-70.5 14.5t-57.5 39t-39 58t-14 71.5q0 36 14 69t39 57.5t57.5 39t70.5 14.5z" />
    <glyph glyph-name="uniE601" unicode="&#xe601;" horiz-adv-x="1138" 
d="M427 384q-30 0 -56 11t-45 30.5t-30.5 45.5t-11.5 55t11.5 55t30.5 45t45 30.5t56 11.5q29 0 55 -11.5t45 -30.5t30.5 -45t11.5 -55t-11.5 -55t-30.5 -45.5t-45 -30.5t-55 -11zM1138 -128h-1138v1024h1138v-114v-910zM1024 782h-910v-702q17 24 37 47.5t41.5 42.5
t45 31.5t46.5 12.5q29 0 49 -4.5t36 -10.5t30 -14t29.5 -14t35.5 -10.5t48.5 -4.5t49 17t37.5 42.5t34.5 54.5t39 54.5t51.5 42.5t73 17q36 0 69.5 -22.5t62.5 -58t53 -79t42 -85.5v643z" />
    <glyph glyph-name="uniE602" unicode="&#xe602;" 
d="M510.5 -148q-90.5 0 -173.5 35q-81 34 -142.5 95.5t-95.5 141.5q-35 83 -35 174t35 174q34 80 95.5 142t142.5 96q83 35 173 35q31 0 60.5 -4t58 -11.5t55.5 -19.5q27 -11 51.5 -25.5t47.5 -32t43 -38.5q62 -62 96 -142q12 -27 19.5 -56t11.5 -58.5t4 -59.5
q0 -91 -35 -174q-17 -39 -41 -75t-55 -67q-62 -61 -142 -95q-83 -35 -173.5 -35zM510 682q-51 0 -99.5 -13t-92 -38.5t-79.5 -61.5q-54 -54 -83 -124t-29 -146.5t29 -146.5t83.5 -124.5t124.5 -83.5t146.5 -29t146.5 29t124.5 83.5t83.5 124.5t29 146.5t-29 146.5
t-83.5 124.5t-124.5 83.5t-147 29zM684 298l-254 -195v390z" />
    <glyph glyph-name="uniE603" unicode="&#xe603;" 
d="M800 435v51q0 96 -67 163.5t-163 67.5h-116q-63 0 -116 -31t-83.5 -84t-30.5 -116v-57q-25 3 -47.5 -9t-35.5 -35.5t-13 -51.5v-64q0 -39 29 -67.5t67 -28.5h32q19 0 32 13l160 -77q0 -24 19.5 -41t44.5 -17q19 0 33.5 8t22.5 22.5t8 33.5q0 29 -17.5 46.5t-46.5 17.5
q-19 0 -32 -13l-160 77v128q0 19 -8.5 33t-23.5 18v64q0 33 13.5 64t36 53.5t53 36t63.5 13.5h116q44 0 82.5 -23t61 -61.5t22.5 -82.5v-64q-15 -9 -23.5 -23t-8.5 -28v-128q0 -24 20 -44t44 -20h32q38 0 67 29t29 67v64q0 39 -29 67.5t-67 28.5z" />
    <glyph glyph-name="uniE604" unicode="&#xe604;" 
d="M512 747q-91 0 -174 -35t-142.5 -95t-95 -143t-35.5 -174t35.5 -174t95 -143t142.5 -95.5t174 -35.5t174 35.5t143 95.5t95.5 143t35.5 174q0 73 -22.5 141t-64 123t-96.5 96.5t-123.5 64t-141.5 22.5zM512.5 -107q-110.5 0 -204.5 54.5t-148.5 148.5t-54.5 204t54.5 204
t148.5 148.5t204 54.5q42 0 82 -8.5t76.5 -24t69.5 -37.5t60 -49.5t49.5 -60.5t38 -69t23.5 -76.5t8 -81.5q0 -110 -54.5 -204t-148 -148.5t-204 -54.5zM648 436q-8 9 -19.5 12t-23 0t-20.5 -12l-73 -74l-73 74q-9 9 -20.5 12t-22.5 0t-20 -12q-13 -13 -13 -31.5t13 -32.5
l73 -74l-69 -70v-1l-2 -1q-11 -14 -10.5 -31.5t13 -30t30 -13.5t30.5 11l1 1l1 1l69 70l69 -70q13 -13 31.5 -13t31.5 13t13 32t-13 32l-69 70l73 74q13 14 13 32.5t-13 31.5z" />
    <glyph glyph-name="uniE605" unicode="&#xe605;" 
d="M511 774q0 10 -6.5 16.5t-16 6.5t-16 -6.5t-6.5 -16.5v-11v-234q0 -7 -1 -13t-5 -14t-14 -13t-25 -5q-20 0 -31 9.5t-13 18t-2 17.5v256l-45 12l-46 -12v-256q0 -7 -1 -13t-5 -14t-14 -13t-25 -5t-25 5t-14 13t-5.5 14t-1.5 13v234v11q0 10 -6.5 16.5t-15.5 6.5
q-7 0 -12 -3t-8 -8.5t-3 -11.5v-22q-46 -211 -46 -312q0 -32 47.5 -73.5t121.5 -55.5l-31 -393q-1 -7 -1 -14q0 -24 12 -45t33 -32.5t46 -11.5q37 0 64 26t27 63q0 7 -2 14l-30 393q73 14 120.5 55t47.5 74q0 27 -4.5 69.5t-11.5 83.5t-13.5 77.5t-11.5 58.5l-5 23v22z
M920 395q-1 129 -45.5 231t-96.5 149q-14 22 -39 22q-19 0 -32.5 -13.5t-13.5 -31.5v-45v-803h4q-4 -11 -4 -22q0 -28 20 -47.5t48 -19.5q19 0 34.5 8.5t25 24t9.5 34.5l-4 22h4v223q3 0 9.5 1t22 7t27.5 14.5t22 26.5t10 40v179h-1v0z" />
    <glyph glyph-name="uniE607" unicode="&#xe607;" 
d="M588 140q-9 -7 -22 -17.5t-41 -31.5t-41 -28q-32 -19 -67 -30q-15 -5 -28.5 -8t-24.5 -4q-23 -3 -38 -3q-2 -1 -4 -1h-12q-39 0 -73.5 9.5t-60.5 27.5t-41 46q-8 14 -11.5 30t-3.5 34q0 32 17 57q8 13 19 24t24 20q26 18 58 27.5t64 7.5q31 -1 60.5 -7t56.5 -15
q7 -2 13.5 -4.5t13 -4.5t12.5 -4.5t12 -5.5q24 -10 46 -19q8 -4 18 -7q4 -2 9 -4t10 -3q21 26 35 52q7 12 13 24l11 22q3 7 5.5 13.5t4.5 12t4 10.5q5 14 6 20h-311v34h147v80h-204v34h204v65q0 6 7 10q4 2 8 3.5t9 2.5q11 2 24 2h55v-83h211v-34h-211v-80h167l1 1v-1h-1
q-5 -32 -17 -67q-10 -31 -29 -70q-10 -20 -23 -40.5t-29 -40.5q18 -9 50 -23t121.5 -43t166.5 -41q45 100 45 210q0 104 -40.5 198.5t-109 163t-163 109t-198.5 40.5t-198.5 -40.5t-163 -109t-109 -163t-40.5 -198.5t40.5 -198.5t109 -163t163 -109t198.5 -40.5
q129 0 240 60t181 162q-65 14 -141.5 43.5t-203.5 86.5v0zM186 163q0 -21 7 -37.5t19 -26.5t24 -16.5t26.5 -9.5t22.5 -4t14 -1q59 -2 123 36q7 4 15 10l16 12q8 6 15.5 12.5t14.5 13t12 11t9 7.5l4 4q3 2 5 5q-10 6 -20 11l-20 10q-1 1 -7.5 4t-12 5.5t-15.5 7t-19 8.5
t-20.5 8t-22 7t-22.5 5.5t-23 3.5q-40 5 -70.5 -4t-45 -25t-21.5 -30.5t-8 -26.5v0z" />
    <glyph glyph-name="uniE608" unicode="&#xe608;" 
d="M511 507q-29 0 -52.5 -13.5t-37.5 -37.5t-14 -53q0 -44 30 -74t74.5 -30t74 30t29.5 74t-29.5 74t-74.5 30zM511.5 230q-72.5 0 -123 50t-50.5 123q0 48 23 88t63 62.5t87.5 22.5t87.5 -22.5t63 -62.5t23 -88q0 -73 -50.5 -123t-123 -50zM511 663q-128 0 -232 -72
t-149 -188q45 -116 149 -188t232.5 -72t232.5 72t149 188q-18 45 -46 85.5t-64.5 72t-79 54.5t-91.5 35.5t-101 12.5z" />
    <glyph glyph-name="uniE609" unicode="&#xe609;" 
d="M892 478.5q-6 18.5 -25 21.5l-229 33l-102 208q-4 8 -12 12t-16.5 4t-16.5 -4t-11 -12l-103 -208l-229 -33q-9 -1 -15.5 -7t-9.5 -14q-6 -19 8 -32l166 -162l-39 -228q-1 -4 -0.5 -8.5t2 -8.5t4 -7.5t6.5 -6.5q5 -3 10.5 -4.5t11.5 -1t11 3.5l205 108l205 -108
q3 -2 6.5 -2.5t7.5 -0.5q10 0 18 6q16 11 13 30l-39 228l165 162q14 13 8 31.5z" />
    <glyph glyph-name="uniE60A" unicode="&#xe60a;" 
d="M414 289q-82 0 -139.5 57.5t-57.5 139.5t57.5 139.5t139.5 57.5t139 -57.5t57 -139.5t-57 -139.5t-139 -57.5zM676 289h-35l-13 14q70 76 70 183q0 33 -7.5 65t-21.5 60t-33.5 53t-44 44t-52.5 33t-60 21.5t-65 7.5q-58 0 -111 -22.5t-90.5 -60.5t-60 -90.5t-22.5 -110.5
q0 -118 83 -201t201 -83q106 0 183 70l13 -13v-35l219 -219l65 66z" />
    <glyph glyph-name="uniE60B" unicode="&#xe60b;" 
d="M474 277h77v-77h-77v77zM474 582h77v-229h-77v229zM513 9q77 0 147.5 30.5t122 81.5t82 122t30.5 148q0 103 -51.5 191.5t-139.5 139.5t-191 51q-62 0 -120.5 -19.5t-105.5 -54.5t-82.5 -82t-55 -105.5t-19.5 -120.5q0 -103 51.5 -191t139.5 -139.5t192 -51.5z" />
    <glyph glyph-name="uniE60C" unicode="&#xe60c;" 
d="M508 73q-127 0 -218 90.5t-91 218t91 218t218 90.5t218 -90.5t91 -218.5q0 -127 -91 -218q-92 -90 -218 -90zM508 767q-104 0 -193 -51.5t-141 -140.5t-52 -193.5t52 -193.5t141 -140.5t193 -51.5q78 0 149.5 30.5t123.5 82t82.5 123t30.5 149.5q0 63 -19.5 122
t-55.5 106.5t-83.5 83t-106 55t-121.5 19.5zM527 574h-57v-231l200 -124l31 51l-174 104v200z" />
    <glyph glyph-name="uniE60D" unicode="&#xe60d;" 
d="M899 437q-32 0 -55 -22.5t-23 -55.5q0 -23 13 -43l-190 -107l-103 291q23 8 37 28t14 45q0 32 -22.5 55t-54.5 23t-55 -23t-23 -55q0 -16 6.5 -30.5t18 -25.5t25.5 -16l-103 -292l-192 108q5 9 8 19t3 20q0 16 -6.5 30.5t-16.5 25t-24.5 16.5t-30.5 6q-21 0 -39 -10.5
t-28 -28.5t-10 -39t10 -38.5t28 -28t39 -10.5h7q3 0 7 1l60 -374h630l61 376h9q32 0 54.5 22.5t22.5 55t-22.5 55t-54.5 22.5z" />
    <glyph glyph-name="uniE60E" unicode="&#xe60e;" 
d="M448 665q-19 0 -33 -13.5t-14 -33.5v-222l-31 -18l12 -20l19 11v-25q0 -20 14 -33.5t33 -13.5h448q20 0 33.5 13.5t13.5 33.5v274q0 20 -13.5 33.5t-33.5 13.5h-448zM904 618v-274q0 -8 -8 -8h-448q-3 0 -5.5 2t-2.5 6v48l223 132l-15 19l-208 -123v198q0 4 2.5 6t5.5 2
h448q7 -1 8 -8zM364 346q0 15 -16 14q-6 0 -7 2q1 3 5 4q7 0 13 8q3 3 0 4h-4q-3 -1 -8.5 -1.5t-10 -1t-8.5 -1t-6.5 -2t-2.5 -3.5l-1 -43h2t7 0.5t9 1t9.5 2.5t9.5 4t6.5 5t2.5 7zM313 372q-16 -3 -47 -6q-2 15 -6 30.5t-11 34t-19 28.5t-26 7l-7 -3l2 -104q-1 0 -3 -1
l-12 82l3 9l-6 9h-13l-5 -9l3 -8l2 -77l1 -8l-8 -1l-34 110q-23 2 -26 1q-25 -5 -42 -24.5t-22.5 -43t-7 -48.5t1 -42.5t5.5 -24.5q0 -2 3.5 -3t10.5 -1q6 -67 8 -91v-2q1 -1 2.5 -10t3 -17.5t6 -16.5t10.5 -9l21 -170l48 2l-1 158h1q1 0 2.5 0.5t2.5 0.5l20 -161h41l15 202
q7 10 11 21v2q2 17 6 63v52h1v-19v-21q0 -7 0.5 -16.5t1.5 -14t2 -4.5q4 0 7 -0.5t5 3t1 11.5v15v16q0 7 1 12q1 15 2 22q14 3 25 5.5t18 4.5q1 6 1.5 14.5t0 15.5t-0.5 14t1 11zM53 268l-2 8l52 1zM148 123v1q1 0 0 -1zM200 358v5l46 -1zM223 621q-2 1 -4 2.5t-9 6.5
t-15 8.5t-20 6.5t-23.5 3.5t-26.5 -2.5t-30 -11q-7 -3 -13.5 -25t4.5 -37q-2 -1 -3.5 -7.5t-1.5 -14.5q0 -24 6 -24q2 2 4 6q7 -28 27 -48t36 -20q19 0 38 20t23 51l5 32l-1 7q-1 0 -2 -1v4v4v6v5q-10 -7 -46 10q-1 1 -2 1.5t-2.5 1t-2.5 1.5q5 -2 8 -4q10 -5 19 -5
t14.5 3.5t9.5 7.5t6 8zM88 573v7v-7zM88 580v4q0 2 1 3v-1v-1q-1 -2 -1 -5zM94 614q3 3 5 4zM215 -44h-37v-1q-1 -3 2 -14l8 -1l1 1q0 2 4 0q18 -13 35 -12q24 3 -13 27zM142 -44h-42l1 -1q-2 -3 1 -13q1 -1 3 -1h3h3l1 1q2 2 5 -1q20 -13 39 -12q29 2 -12 26zM247 212
l17 13l-12 1zM430 108q4 17 12 36q2 4 6 9q0 4 3 6q1 0 2 1l2 2l2 2q-3 8 -7 16q-16 36 -61 33h-1q7 4 12 5q-4 1 -10.5 0.5t-23 -6t-26.5 -17.5l-3 -3l2 1q-5 -6 -8 -13q-17 -37 -11 -73q2 1 3 1h22v1l1 -1h84zM639 168q2 1 4.5 2.5t4.5 3.5q2 1 3 2q0 3 0.5 6.5t1 6
t0.5 4.5v3v1q-1 2 -4 5t-13.5 9t-22 8.5t-29.5 0.5t-36 -12q-2 -1 -9.5 -6.5t-11.5 -7.5q2 -6 3 -15q5 -1 8.5 -2t8 -3t8 -5t7 -6.5t7 -8.5t5.5 -10q3 -5 4.5 -10t3 -9.5t2.5 -8.5l2 -8h44q2 10 5 15v1v2q-1 12 -4 24v1q-1 5 1 10t7 7zM429 92h-106q-10 0 -17 -7t-7 -17v-70
q0 -7 3 -12.5t8.5 -8.5t12.5 -3h78v54q0 6 1.5 11t4 9.5t6 8t8 6t10.5 4.5q-3 13 -2 25zM787 108h56q3 17 12 36q2 4 5 9q0 4 4 6v1h2q0 1 1.5 2t1.5 2q-3 9 -7 16q-16 37 -60 33h-1q7 4 12 6q-38 3 -60 -24q-1 -1 -2 -1.5t-2 -0.5h2q-2 -3 -3 -4q22 -8 34 -21q4 -5 3 -12
q0 -3 -0.5 -8t-1 -8.5t-1 -8.5t-1.5 -8q2 -3 3.5 -6.5t2.5 -8.5zM841 92h-54q0 -18 -6 -26q12 -4 20 -14.5t8 -23.5v-54h4v54q0 14 8.5 24.5t21.5 14.5q-2 12 -2 25zM629 92h-41q1 -12 -2 -29q14 -7 19 -23q7 22 29 27q-2 4 -3.5 10t-1.5 15zM462 77q6 1 8 -6v-1q1 -1 1 -2
h71q1 4 2 10t7 6q7 0 7 -7q0 -1 0.5 -2.5t0.5 -3.5v-3h8h3h2q6 33 -11 70q-13 28 -47 28h-6h-2h-1q-2 1 -3.5 2t-1.5 2q-10 -2 -19.5 -6.5t-16.5 -13.5h-1q0 -1 -1 -2q-4 -5 -6 -10q-17 -36 -11 -70h11v1q0 7 6 8zM648 115q-5 0 -5 -21t5 -21q2 0 4 6q0 -3 2 -9l1 -2h107
q1 3 1.5 6.5t0.5 6.5q1 -3 2 -5t2 -2q5 0 5 21q0 4 -0.5 7t-0.5 5.5t-1 4.5l-1 3q-1 1 -2 1t-2 -1l5 43l-1 1q-2 1 -2 2l-1 1l-4 3h-1v1q-1 0 -3 2l-2 1l-1 1q-2 1 -5 2l-3 1q0 1 -2 1q-3 2 -7 3q-1 0 -2 1l-10 2h-1h-1q-2 1 -5 1h-5h-3h-6q-2 0 -5 -1q-1 0 -3 -0.5t-3 -0.5
q-4 -1 -5 -1l-8 -2q0 -1 -4 -2q-1 0 -2.5 -1t-3 -1.5t-3.5 -1.5t-3 -1q-3 -2 -10 -7.5t-11 -6.5q1 -2 1.5 -4.5t1.5 -10.5t2 -15q-1 -3 -1 -10h-1zM567 52h-126q-10 0 -17 -7t-7 -17v-70q0 -5 2 -9.5t5 -7.5t7.5 -5t9.5 -2h126q10 0 17 7t7 17v70q0 10 -7 17t-17 7zM920 166
h-3q-3 1 -5 4q-23 -4 -36 -20h-1v-2q-5 -5 -7 -10q-17 -36 -11 -70h11v1q0 7 6 8t8 -6q1 0 1 -2v-1h72q1 4 1 10q3 5 8 6q6 0 7 -7v-3v-3v-3h8h3h2q3 14 1 31t-11 39q-13 28 -47 28h-7zM979 52h-126q-4 0 -7.5 -1t-6.5 -3.5t-5 -5.5t-3.5 -6.5t-1.5 -7.5v-70q0 -10 7 -17
t17 -7h126q10 0 17 7t7 17v70q0 4 -1 7.5t-3.5 6.5t-5.5 5.5t-6.5 3.5t-7.5 1zM769 52h-126q-4 0 -7 -1t-5.5 -2.5t-5 -3.5t-4 -4.5t-2 -6t-0.5 -6.5v-70q0 -7 3 -12.5t8.5 -8.5t12.5 -3h126q10 0 17 7t7 17v70q0 10 -7 17t-17 7zM732 496l-107 -113l-65 34l-76 -57l395 -1
v223l-87 -111z" />
    <glyph glyph-name="uniE60F" unicode="&#xe60f;" 
d="M739 328h-158l112 113q5 5 7 12.5t0 14.5t-7 13q-2 2 -5 4t-6 3t-6 1h-6q-3 0 -6 -1t-6 -3t-5 -4l-113 -112v158q0 29 -28 29q-8 0 -14.5 -4t-10 -10.5t-3.5 -14.5v-158l-113 112q-8 8 -20 8t-20 -8t-8 -20t8 -20l112 -113h-158q-12 0 -20.5 -8t-8.5 -20q0 -3 0.5 -5.5
t1.5 -4.5l2 -4q1 -2 2.5 -4t3.5 -4l4 -2q2 -2 4.5 -3t5.5 -1h5h158l-112 -113q-8 -8 -8 -20t8 -20t20 -8q3 0 5.5 0.5t5 1.5t5 2.5t4.5 3.5l113 112v-158q0 -12 8 -20.5t20 -8.5q8 0 14.5 4t10 10.5t3.5 14.5v158l113 -112l3 -3q1 -1 2.5 -1.5t3.5 -1.5t3.5 -1.5t3.5 -0.5h4
q5 0 10.5 2t9.5 6q3 3 4.5 6t2.5 6.5t1 7.5t-1 7.5t-2.5 7t-4.5 5.5l-112 113h158q12 0 20.5 8t8.5 20t-8.5 20t-20.5 8z" />
    <glyph glyph-name="uniE611" unicode="&#xe611;" 
d="M899 167l120 348q7 19 -3 33q-13 18 -43 18h-681l-18 83q-9 38 -48 38h-192q-30 0 -30 -27v-48q0 -12 7.5 -17t23.5 -5h162l123 -506q-30 -31 -30 -77t33 -80.5t80 -34.5q40 0 72.5 29t38.5 57h241q7 -30 36.5 -58.5t75.5 -28.5q18 0 35 5.5t31 16t24.5 24.5t16 31
t5.5 35q0 47 -29 79.5t-83 32.5q-24 0 -48 -11t-37 -29h-295q-28 41 -81 43l-4 21h450q23 0 32 7t15 21zM359 4q0 17 12.5 29t30 12t30.5 -12t13 -29t-13 -29t-30.5 -12t-30 12t-12.5 29zM867 -37q-17 0 -29.5 12t-12.5 29t12.5 29t29.5 12q12 0 22 -5.5t15.5 -15t5.5 -20.5
t-5.5 -20.5t-15.5 -15t-22 -5.5z" />
    <glyph glyph-name="uniE612" unicode="&#xe612;" 
d="M932 8q10 0 3 -14q-59 -31 -94 -122q-203 -11 -389 14q-70 14 -126 108q-14 25 -38 4q-53 -39 -101 -119q-4 -11 -14 -4l-42 67v3q-2 2 -1 3t4 1l130 87l3 301l-136 -7q-11 4 -14 11q0 10 10 10l144 7l31 39l70 -49q10 -7 0 -18l-28 -28l-7 -245q0 -14 4.5 -26.5t13 -23
t21.5 -18t31 -12.5q182 -42 525 31zM208 670q57 -26 87.5 -53.5t34.5 -55.5q-2 -24 -14 -40t-35 -23q-32 -7 -38 25q-11 91 -39 136q-2 2 -2.5 4t-0.5 3q1 3 7 4zM781 376q-141 0 -255 -4l-4 -252l119 60l7 -7l-199 -168q-4 -7 -14 3l-35 49l-4 7q4 4 7 4l56 24l-3 504
l-7 95q0 7 3 10q7 0 11 -3l66 -46l161 4l35 42l74 -46q7 -3 0 -14l-21 -28v-217l7 -10q3 -11 -4 -7zM659 519l-130 -3l-3 -123l164 4v241l-161 -3v-105l130 3q3 0 5 -1h2q2 -1 2.5 -2.5t0.5 -3.5t-1 -3.5t-3.5 -2.5t-5.5 -1zM795 372l63 -59q4 -2 3 -4.5t-6 -6.5l-28 -7
q-53 -24 -133 -52q122 -74 143 -109t-31 -94q-25 -25 -39 7q-49 133 -171 238q-7 7 3 10q4 -2 8.5 -4.5t10.5 -6t13 -6.5q35 -18 52 -28q25 21 45.5 41.5t37.5 41t29 39.5z" />
    <glyph glyph-name="uniE613" unicode="&#xe613;" 
d="M690 349q29 0 51 22t22 52q0 8 -2 16t-5.5 15.5t-8.5 14t-11.5 11.5t-14 9t-15.5 6t-16 2q-30 0 -52 -22.5t-22 -51.5q0 -8 2 -16.5t5.5 -15.5t9 -13.5t12 -11.5t13.5 -9t15 -6t17 -2zM346 349q14 0 27.5 6t23.5 16t16 23.5t6 28.5q0 19 -10 36t-27 27.5t-36 10.5
q-10 0 -19.5 -3t-17.5 -8t-15 -11.5t-12 -15t-7.5 -17.5t-2.5 -19q0 -15 6 -28.5t16 -23.5t23.5 -16t28.5 -6zM518 5q94 0 170 55t110 142h-561q43 -108 143 -162q65 -35 138 -35zM518 792q-100 0 -191 -39.5t-157 -105t-105 -156.5t-39 -191t39 -191t105 -156.5t157 -105
t190.5 -39.5t190.5 39.5t157 105t105 156.5t39 191t-39 191t-105 156.5t-157 105t-190 39.5zM518 -93q-107 0 -197.5 52.5t-143.5 143.5t-53 197q0 80 31.5 152.5t84 125.5t125.5 84t153 31q106 0 196.5 -52.5t143.5 -143.5t53 -197q0 -153 -105 -266q-102 -111 -250 -125
q-20 -2 -38 -2z" />
  </font>
</defs>
</svg>
